<svg width="455" height="648" viewBox="0 0 455 648" fill="none" xmlns="http://www.w3.org/2000/svg">
<path d="M445.583 44.4955V496.656L444.012 515.483C441.258 548.164 427.414 578.922 404.776 602.653C401.566 606.01 398.208 609.19 394.702 612.191C390.386 615.913 385.847 619.369 381.111 622.538C378.401 624.36 375.624 626.078 372.801 627.706C356.385 637.187 338.251 643.319 319.45 645.748H184.723C174.001 645.757 163.64 641.879 155.56 634.832C151.56 631.35 148.207 627.188 145.657 622.538C142.093 616.014 140.23 608.698 140.239 601.264V44.4955C140.254 32.6991 144.946 21.3903 153.288 13.049C161.629 4.70771 172.938 0.0149937 184.734 0H401.099C401.611 0 402.112 0.0113877 402.624 0.0227705C402.954 0.0341534 403.284 0.0455397 403.614 0.0796881C404.058 0.091071 404.502 0.125222 404.935 0.170753C405.493 0.204901 406.039 0.261745 406.585 0.330042C407.086 0.398339 407.587 0.466639 408.088 0.546319C408.19 0.557702 408.281 0.580477 408.384 0.59186C409.021 0.694305 409.659 0.808131 410.285 0.944725C410.911 1.06994 411.548 1.2179 412.163 1.37726C412.607 1.49109 413.062 1.61631 413.506 1.74152C413.518 1.74152 413.54 1.7529 413.552 1.7529C414.861 2.13991 416.158 2.58385 417.433 3.09608C417.832 3.24406 418.23 3.41479 418.617 3.58553L418.788 3.65383C419.107 3.79042 419.414 3.92703 419.721 4.075C420.643 4.49617 421.554 4.96285 422.453 5.45232C423.932 6.26783 425.365 7.16468 426.744 8.13873C427.188 8.44607 427.621 8.77616 428.042 9.10626C428.395 9.36807 428.748 9.64125 429.089 9.93721C429.118 9.9523 429.145 9.97147 429.169 9.99412C429.214 10.0283 429.26 10.0738 429.306 10.108C429.613 10.347 429.909 10.5974 430.193 10.8478C430.751 11.3259 431.297 11.8268 431.832 12.339C431.98 12.4756 432.128 12.6122 432.276 12.7602C432.424 12.8968 432.561 13.0447 432.709 13.1927C432.857 13.3293 432.994 13.4773 433.13 13.6139C433.212 13.684 433.288 13.7601 433.358 13.8415C433.768 14.2741 434.166 14.718 434.553 15.1619C435.042 15.7197 435.521 16.2888 435.964 16.8694C436.351 17.3474 436.716 17.8255 437.069 18.315C437.399 18.7588 437.706 19.2028 438.013 19.6582C438.096 19.7714 438.172 19.8892 438.241 20.011C438.56 20.4777 438.856 20.9558 439.152 21.4339C439.892 22.6405 440.563 23.8926 441.178 25.1561C441.405 25.6341 441.622 26.1008 441.827 26.5789C442.088 27.1594 442.327 27.74 442.555 28.3205C442.646 28.5368 442.726 28.7644 442.806 28.9807C442.931 29.3108 443.045 29.6409 443.158 29.971C443.284 30.3352 443.409 30.7109 443.523 31.0751L443.796 31.963C443.955 32.498 444.092 33.0216 444.228 33.5566C444.308 33.8753 444.388 34.194 444.456 34.5241C444.99 36.8488 445.337 39.2127 445.492 41.5929C445.503 41.8888 445.526 42.1734 445.537 42.4693C445.572 43.1409 445.583 43.8125 445.583 44.4955Z" fill="url(#paint0_linear_20_96)"/>
<path d="M445.583 44.4955V232.107L417.331 262.795C416.056 261.452 414.8 260.09 413.563 258.709C411.799 256.774 410.076 254.808 408.395 252.813C407.951 252.3 407.53 251.8 407.098 251.287C405.971 249.967 404.878 248.624 403.785 247.269C393.897 235.035 385.081 221.973 377.434 208.226C376.478 206.507 375.544 204.788 374.622 203.047C366.317 187.32 359.566 170.82 354.463 153.782C353.883 151.858 353.325 149.912 352.802 147.965C348.584 132.729 345.694 117.156 344.162 101.421C343.946 99.2014 343.752 96.9931 343.593 94.7734C343.593 94.7165 343.582 94.6482 343.582 94.5913C343.399 92.1782 343.274 89.765 343.16 87.3291C341.78 57.876 345.131 28.392 353.086 0H401.099C401.611 0 402.112 0.0113877 402.624 0.0227705C402.954 0.0341533 403.284 0.0455397 403.615 0.0796881C404.058 0.091071 404.502 0.125222 404.935 0.170753C405.493 0.204901 406.039 0.261745 406.585 0.330042C407.086 0.398339 407.587 0.466639 408.088 0.546319C408.19 0.557702 408.282 0.580477 408.384 0.59186H408.395C409.033 0.694305 409.67 0.808131 410.296 0.944725C410.922 1.06994 411.56 1.2179 412.174 1.37726C412.618 1.49109 413.074 1.61631 413.518 1.74152C413.529 1.74152 413.552 1.7529 413.563 1.7529C414.872 2.13991 416.158 2.58385 417.433 3.09608C417.832 3.24406 418.23 3.41479 418.617 3.58553L418.788 3.65383C419.107 3.79042 419.414 3.92703 419.721 4.075C420.643 4.49617 421.554 4.96285 422.453 5.45232C423.932 6.26783 425.365 7.16468 426.744 8.13873C427.188 8.44607 427.621 8.77616 428.042 9.10626C428.395 9.36807 428.748 9.64125 429.089 9.9372C429.118 9.9523 429.145 9.97147 429.169 9.99412H429.18C429.385 10.1649 429.59 10.3356 429.784 10.5063C429.92 10.6202 430.068 10.734 430.193 10.8478C430.387 11.0072 430.569 11.1779 430.763 11.3373C430.854 11.417 430.945 11.4967 431.024 11.5763C431.298 11.8268 431.559 12.0772 431.833 12.339C431.981 12.4756 432.129 12.6122 432.276 12.7602C432.424 12.8968 432.561 13.0447 432.709 13.1927C432.857 13.3293 432.994 13.4773 433.13 13.6139L433.142 13.6252C433.225 13.6855 433.298 13.7585 433.358 13.8415C433.768 14.2741 434.166 14.718 434.553 15.1619C435.043 15.7197 435.521 16.2888 435.965 16.8694C436.352 17.3474 436.716 17.8255 437.069 18.315C437.399 18.7588 437.706 19.2028 438.013 19.6582C438.096 19.7714 438.172 19.8892 438.241 20.011C438.56 20.4777 438.856 20.9558 439.152 21.4339C439.892 22.6404 440.563 23.8926 441.178 25.1561C441.406 25.6341 441.622 26.1008 441.827 26.5789C442.089 27.1594 442.328 27.74 442.555 28.3205C442.646 28.5368 442.726 28.7644 442.806 28.9807C442.931 29.3108 443.045 29.6409 443.158 29.971C443.284 30.3352 443.409 30.7109 443.523 31.0751L443.796 31.963C443.955 32.498 444.092 33.0216 444.228 33.5566C444.308 33.8753 444.388 34.194 444.456 34.5241C444.99 36.8488 445.337 39.2127 445.492 41.5929C445.503 41.8888 445.526 42.1734 445.538 42.4693C445.572 43.1409 445.583 43.8125 445.583 44.4955Z" fill="url(#paint1_linear_20_96)"/>
<path opacity="0.2" d="M445.594 101.421V96.2305H413.563V15.1619H434.564C434.177 14.718 433.779 14.2741 433.369 13.8415H433.358C433.297 13.7585 433.224 13.6855 433.141 13.6253V13.6139H433.13C432.993 13.4773 432.857 13.3293 432.709 13.1927C432.577 13.0403 432.437 12.8958 432.288 12.7602H432.276C432.128 12.6122 431.98 12.4756 431.832 12.339C431.559 12.0772 431.297 11.8268 431.024 11.5763C430.945 11.4967 430.853 11.417 430.762 11.3373C430.569 11.178 430.387 11.0072 430.193 10.8478C430.068 10.734 429.92 10.6202 429.783 10.5064C429.59 10.3356 429.385 10.1649 429.18 9.99413H413.563V1.75297C413.552 1.75297 413.529 1.74158 413.517 1.74158C413.073 1.61637 412.618 1.49117 412.174 1.37734C411.56 1.21798 410.922 1.07 410.296 0.944784C409.67 0.80819 409.033 0.694364 408.395 0.591919V15.1619C408.393 33.841 401.943 51.9466 390.133 66.4189C378.324 80.8913 361.88 90.8427 343.581 94.5913C343.581 94.6482 343.593 94.7165 343.593 94.7734C343.752 96.9931 343.946 99.2014 344.162 101.421H408.395V203.047H374.622C375.544 204.788 376.478 206.507 377.434 208.226H408.395V252.813C410.08 254.805 411.802 256.77 413.563 258.709V208.226H445.594V197.777H445.583C445.48 197.811 445.389 197.845 445.287 197.879C429.681 203.127 413.563 191.288 413.563 174.818V101.421H445.594Z" fill="black"/>
<path d="M60.6406 513.756L4.0202 493.974C-2.21325 463.098 -0.815488 431.167 8.09218 400.954C29.5719 452.666 96.5658 467.124 133.763 508.979C145.265 522.123 153.661 537.686 158.33 554.515C163 571.344 163.822 589.009 160.736 606.199L171.578 647.332C143.567 644.12 116.586 634.873 92.4931 620.229C68.4004 605.585 47.7687 585.892 32.0196 562.506C23.3143 549.3 16.3068 535.049 11.1624 520.092C35.6035 518.358 60.6406 513.756 60.6406 513.756Z" fill="#F2F2F2"/>
<path d="M137.152 202.578C135.824 202.577 134.552 202.049 133.613 201.11C132.674 200.171 132.146 198.899 132.145 197.571V163.523C132.144 162.864 132.272 162.212 132.524 161.604C132.775 160.996 133.143 160.443 133.608 159.977C134.074 159.511 134.626 159.142 135.234 158.89C135.842 158.638 136.494 158.508 137.152 158.508C137.81 158.508 138.462 158.638 139.07 158.89C139.678 159.142 140.23 159.511 140.695 159.977C141.16 160.443 141.529 160.996 141.78 161.604C142.031 162.212 142.16 162.864 142.159 163.523V197.571C142.157 198.899 141.629 200.171 140.691 201.11C139.752 202.049 138.479 202.577 137.152 202.578V202.578Z" fill="#2E3E41"/>
<path d="M312.712 175.392H273.123C264.584 175.392 257.661 182.315 257.661 190.854V190.854C257.661 199.394 264.584 206.317 273.123 206.317H312.712C321.252 206.317 328.175 199.394 328.175 190.854C328.175 182.315 321.252 175.392 312.712 175.392Z" fill="url(#paint2_linear_20_96)"/>
<path d="M386.16 237.242H199.676C191.136 237.242 184.213 244.165 184.213 252.705V252.705C184.213 261.245 191.136 268.168 199.676 268.168H386.16C394.7 268.168 401.623 261.245 401.623 252.705C401.623 244.165 394.7 237.242 386.16 237.242Z" fill="white"/>
<path d="M386.16 299.093H199.676C191.136 299.093 184.213 306.016 184.213 314.556V314.556C184.213 323.095 191.136 330.018 199.676 330.018H386.16C394.7 330.018 401.623 323.095 401.623 314.556C401.623 306.016 394.7 299.093 386.16 299.093Z" fill="white"/>
<path d="M136.15 136.484C134.823 136.482 133.55 135.954 132.611 135.016C131.673 134.077 131.145 132.804 131.143 131.477V97.4282C131.145 96.1015 131.673 94.8299 132.612 93.8925C133.551 92.9551 134.824 92.4286 136.15 92.4286C137.477 92.4286 138.749 92.9551 139.688 93.8925C140.627 94.8299 141.155 96.1015 141.157 97.4282V131.477C141.156 132.804 140.628 134.077 139.689 135.016C138.75 135.954 137.478 136.482 136.15 136.484Z" fill="#2E3E41"/>
<path d="M259.096 16.5426C259.097 15.215 259.626 13.9424 260.564 13.0037C261.503 12.065 262.776 11.5369 264.103 11.5354H298.152C299.48 11.5354 300.753 12.0629 301.692 13.002C302.631 13.941 303.159 15.2146 303.159 16.5426C303.159 17.8705 302.631 19.1441 301.692 20.0832C300.753 21.0222 299.48 21.5497 298.152 21.5497H264.103C262.776 21.5481 261.503 21.0201 260.564 20.0814C259.626 19.1427 259.098 17.8701 259.096 16.5426V16.5426Z" fill="white"/>
<path d="M137.152 260.661C135.824 260.66 134.552 260.132 133.613 259.193C132.674 258.254 132.146 256.982 132.145 255.654V221.606C132.144 220.947 132.272 220.295 132.524 219.687C132.775 219.079 133.143 218.526 133.608 218.06C134.074 217.594 134.626 217.225 135.234 216.973C135.842 216.721 136.494 216.591 137.152 216.591C137.81 216.591 138.462 216.721 139.07 216.973C139.678 217.225 140.23 217.594 140.695 218.06C141.16 218.526 141.529 219.079 141.78 219.687C142.031 220.295 142.16 220.947 142.159 221.606V255.654C142.157 256.982 141.629 258.254 140.691 259.193C139.752 260.132 138.479 260.66 137.152 260.661V260.661Z" fill="#2E3E41"/>
<path d="M449.041 186.673C447.714 186.671 446.441 186.143 445.502 185.205C444.564 184.266 444.036 182.993 444.034 181.666V147.617C444.033 146.959 444.162 146.307 444.413 145.699C444.664 145.09 445.033 144.537 445.498 144.072C445.963 143.606 446.515 143.236 447.123 142.984C447.731 142.732 448.383 142.602 449.041 142.602C449.7 142.602 450.351 142.732 450.959 142.984C451.567 143.236 452.12 143.606 452.585 144.072C453.05 144.537 453.418 145.09 453.67 145.699C453.921 146.307 454.049 146.959 454.048 147.617V181.666C454.047 182.993 453.519 184.266 452.58 185.205C451.642 186.143 450.369 186.671 449.041 186.673V186.673Z" fill="#2E3E41"/>
<path d="M317.179 21.5497C319.944 21.5497 322.186 19.3079 322.186 16.5425C322.186 13.7772 319.944 11.5354 317.179 11.5354C314.414 11.5354 312.172 13.7772 312.172 16.5425C312.172 19.3079 314.414 21.5497 317.179 21.5497Z" fill="white"/>
<path d="M394.709 612.188C390.393 615.91 385.855 619.366 381.118 622.535C378.409 624.357 375.632 626.075 372.809 627.703C356.392 637.184 338.259 643.316 319.457 645.745H184.73C174.009 645.754 163.648 641.876 155.567 634.829C151.567 631.347 148.215 627.185 145.664 622.535C142.101 616.011 140.238 608.695 140.246 601.261V355.801C145.391 356.166 150.498 356.678 155.567 357.338C157.298 357.554 159.016 357.793 160.735 358.055C195.92 363.25 229.753 375.263 260.335 393.422C262.065 394.446 263.795 395.493 265.503 396.575C280.812 406.112 295.148 417.13 308.302 429.471C310.112 431.167 311.899 432.894 313.664 434.65C342.637 463.287 364.895 497.997 378.83 536.276C379.456 537.995 380.063 539.725 380.651 541.467C388.435 564.318 393.162 588.098 394.709 612.188Z" fill="url(#paint3_linear_20_96)"/>
<path opacity="0.2" d="M265.503 622.535C265.503 611.888 267.6 601.345 271.675 591.509C275.75 581.673 281.722 572.735 289.252 565.207C296.781 557.679 305.719 551.708 315.556 547.634C325.393 543.561 335.936 541.465 346.583 541.467H380.652C380.06 539.725 379.453 537.995 378.83 536.276H265.503V434.65H313.664C311.899 432.897 310.112 431.171 308.302 429.471H265.503V396.575C263.796 395.493 262.065 394.446 260.335 393.422V429.471H160.735V358.055C159.017 357.793 157.298 357.554 155.568 357.338V429.471H140.246V434.65H155.568V536.276H140.246V541.467H155.568V622.535H145.665C146.651 624.331 147.757 626.057 148.977 627.703H155.568V634.829C157.194 636.246 158.921 637.544 160.735 638.71V627.703H260.335V645.745H265.503V627.703H372.809C375.632 626.075 378.409 624.356 381.118 622.535L265.503 622.535ZM260.335 622.535H160.735V541.467H260.335V622.535ZM260.335 536.276H160.735V534.261C160.735 507.845 171.228 482.51 189.906 463.829C208.585 445.149 233.918 434.653 260.335 434.65V536.276Z" fill="black"/>
<path d="M242.703 485.543C242.704 489.833 241.28 494.001 238.655 497.394C236.03 500.787 232.352 503.211 228.199 504.287C224.046 505.362 219.654 505.028 215.712 503.336C211.77 501.643 208.502 498.69 206.421 494.939C204.339 491.188 203.563 486.851 204.214 482.611C204.865 478.371 206.906 474.467 210.017 471.513C213.127 468.559 217.131 466.722 221.399 466.29C225.667 465.859 229.958 466.857 233.597 469.129C229.812 473.555 226.673 478.495 224.274 483.801C228.539 479.535 233.995 476.658 239.926 475.549C241.75 478.563 242.711 482.02 242.703 485.543Z" fill="#2E3E41"/>
<path d="M308.7 595.98C305.666 592.947 303.725 588.993 303.182 584.738C302.639 580.482 303.526 576.167 305.702 572.47C307.878 568.773 311.22 565.904 315.204 564.313C319.188 562.722 323.588 562.5 327.712 563.681C331.836 564.861 335.451 567.379 337.988 570.837C340.526 574.296 341.844 578.5 341.733 582.788C341.622 587.076 340.09 591.206 337.378 594.53C334.665 597.853 330.925 600.181 326.746 601.147C326.292 595.341 325.019 589.629 322.963 584.18C322.963 590.213 321.14 596.105 317.731 601.083C314.31 600.242 311.186 598.477 308.7 595.98V595.98Z" fill="#2E3E41"/>
<path d="M423.436 60.5594H162.401C162.099 60.5527 161.811 60.428 161.6 60.212C161.389 59.996 161.271 59.7058 161.271 59.4037C161.271 59.1015 161.389 58.8114 161.6 58.5954C161.811 58.3793 162.099 58.2546 162.401 58.2479H423.436C423.738 58.2546 424.025 58.3793 424.237 58.5954C424.448 58.8114 424.566 59.1015 424.566 59.4037C424.566 59.7058 424.448 59.996 424.237 60.212C424.025 60.428 423.738 60.5527 423.436 60.5594Z" fill="white"/>
<path d="M182.185 52.3469C185.925 52.3469 188.958 49.2468 188.958 45.4226C188.958 41.5985 185.925 38.4984 182.185 38.4984C178.444 38.4984 175.411 41.5985 175.411 45.4226C175.411 49.2468 178.444 52.3469 182.185 52.3469Z" fill="white"/>
<path d="M205.583 52.3469C209.324 52.3469 212.356 49.2468 212.356 45.4226C212.356 41.5985 209.324 38.4984 205.583 38.4984C201.842 38.4984 198.81 41.5985 198.81 45.4226C198.81 49.2468 201.842 52.3469 205.583 52.3469Z" fill="white"/>
<path d="M228.982 52.3469C232.723 52.3469 235.755 49.2468 235.755 45.4226C235.755 41.5985 232.723 38.4984 228.982 38.4984C225.241 38.4984 222.208 41.5985 222.208 45.4226C222.208 49.2468 225.241 52.3469 228.982 52.3469Z" fill="white"/>
<path d="M409.348 40.2147H392.727C392.397 40.2213 392.084 40.3568 391.853 40.5921C391.622 40.8274 391.493 41.1437 391.493 41.4732C391.493 41.8027 391.622 42.1191 391.853 42.3544C392.084 42.5897 392.397 42.7252 392.727 42.7318H409.348C409.677 42.7252 409.991 42.5897 410.222 42.3544C410.452 42.1191 410.582 41.8027 410.582 41.4732C410.582 41.1437 410.452 40.8274 410.222 40.5921C409.991 40.3568 409.677 40.2213 409.348 40.2147V40.2147Z" fill="white"/>
<path d="M409.348 44.9388H392.727C392.397 44.9454 392.084 45.0809 391.853 45.3162C391.622 45.5515 391.493 45.8679 391.493 46.1974C391.493 46.5269 391.622 46.8432 391.853 47.0785C392.084 47.3138 392.397 47.4493 392.727 47.4559H409.348C409.677 47.4493 409.991 47.3138 410.222 47.0785C410.452 46.8432 410.582 46.5269 410.582 46.1974C410.582 45.8679 410.452 45.5515 410.222 45.3162C409.991 45.0809 409.677 44.9454 409.348 44.9388V44.9388Z" fill="white"/>
<path d="M409.348 49.6567H392.727C392.397 49.6633 392.084 49.7988 391.853 50.0341C391.622 50.2694 391.493 50.5858 391.493 50.9153C391.493 51.2448 391.622 51.5611 391.853 51.7964C392.084 52.0317 392.397 52.1672 392.727 52.1738H409.348C409.677 52.1672 409.991 52.0317 410.222 51.7964C410.452 51.5611 410.582 51.2448 410.582 50.9153C410.582 50.5858 410.452 50.2694 410.222 50.0341C409.991 49.7988 409.677 49.6633 409.348 49.6567V49.6567Z" fill="white"/>
<defs>
<linearGradient id="paint0_linear_20_96" x1="292.911" y1="0" x2="292.911" y2="645.748" gradientUnits="userSpaceOnUse">
<stop stop-color="#D9936A"/>
<stop offset="1" stop-color="#BF4F36"/>
</linearGradient>
<linearGradient id="paint1_linear_20_96" x1="394.22" y1="0" x2="394.22" y2="262.795" gradientUnits="userSpaceOnUse">
<stop stop-color="#14D9C5"/>
<stop offset="1" stop-color="#8DF3E9"/>
</linearGradient>
<linearGradient id="paint2_linear_20_96" x1="292.918" y1="175.392" x2="292.918" y2="206.317" gradientUnits="userSpaceOnUse">
<stop stop-color="#14D9C5"/>
<stop offset="1" stop-color="#8DF3E9"/>
</linearGradient>
<linearGradient id="paint3_linear_20_96" x1="267.478" y1="355.801" x2="267.478" y2="645.745" gradientUnits="userSpaceOnUse">
<stop stop-color="#14D9C5"/>
<stop offset="1" stop-color="#8DF3E9"/>
</linearGradient>
</defs>
</svg>
