<svg width="800" height="733" viewBox="0 0 800 733" fill="none" xmlns="http://www.w3.org/2000/svg">
<g clip-path="url(#clip0_19_2)">
<path d="M512.542 584.927L520.229 602.164C513.98 601.169 508.169 606.506 508.039 613.36C507.908 620.213 513.482 627.344 519.731 628.318C518.537 633.639 513.383 635.985 508.909 638.135C504.435 640.286 499.614 643.853 499.946 649.523C500.214 654.075 503.978 658.095 507.976 659.711C511.974 661.327 516.169 661.078 520.218 660.807C514.082 667.225 513.484 679.289 518.872 687.944C524.261 696.599 535.022 700.859 543.079 697.528C537.386 704.61 538.623 717.579 545.688 724.887C552.81 732.255 563.133 732.968 572.156 732.192C595.136 730.249 617.032 721.572 635.105 707.246C642.003 701.764 648.447 695.317 652.382 686.908C656.317 678.499 657.477 667.852 653.811 658.282C654.8 670.27 666.799 679.738 677.593 680.268C688.387 680.798 697.811 674.718 705.82 667.785C716.47 658.565 726.331 645.641 724.869 629.695C724.145 621.8 720.697 614.208 717.316 606.854L710.759 592.596C708.112 586.84 705.406 580.987 701.422 576.157C697.438 571.327 691.909 567.588 686.375 567.623C687.64 561.843 688.911 555.847 687.851 549.706C686.791 543.565 682.731 537.206 677.209 535.768C670.182 533.937 664.226 540.422 657.16 539.811C650.36 539.223 644.74 532.398 638.137 529.694C635.418 528.518 632.415 528.16 629.496 528.665C626.578 529.17 623.869 530.515 621.703 532.536C617.517 536.623 615.772 543.527 617.275 550.06C618.59 555.783 622.092 560.83 624.218 566.349C626.344 571.869 626.673 578.965 622.591 581.98C617.665 585.617 610.167 580.667 606.319 574.679C602.47 568.691 600.26 561.441 595.394 556.405C589.65 550.461 580.659 549.068 574.745 553.206C568.831 557.344 566.569 566.609 569.551 574.486C571.988 580.926 577.573 587.441 575.636 593.505C573.589 599.914 564.632 599.103 559.229 594.573C553.826 590.043 550.239 583.22 544.902 578.589C539.482 573.885 532.404 571.825 526.19 573.141C523.038 573.872 520.121 575.385 517.708 577.541C515.296 579.697 513.465 582.426 512.385 585.477" fill="#E6E6E6"/>
<path d="M637.004 536.487L621.054 543.898C618.656 545.082 615.937 545.448 613.311 544.942C610.996 544.394 609.431 542.978 609.02 541.056L605.308 523.721C604.607 520.451 607.316 516.582 611.748 514.523L620.556 510.43C624.988 508.371 629.692 508.796 631.739 511.441L642.594 525.457C643.798 527.011 643.87 529.12 642.796 531.243C641.49 533.576 639.456 535.418 637.004 536.487V536.487Z" fill="#1F332E"/>
<path d="M142.408 216.097C157.404 175.054 180.805 137.596 211.114 106.12C236.828 79.4254 276.848 80.5346 276.848 80.5346L277.077 80.2509C286.709 68.3732 299.634 59.6044 314.231 55.0446C328.827 50.4848 344.445 50.337 359.126 54.6198C362.941 55.7148 365.876 56.2001 367.272 55.7124C392.721 46.8056 391.526 26.7022 413.482 10.507C451.927 -17.8499 579.446 14.6323 597.427 66.8123C612.001 109.103 677.054 129.601 701.358 161.95C705.158 167.008 708.887 172.125 712.544 177.3C714.258 179.705 715.954 182.127 717.63 184.568C734.849 209.504 750.297 235.618 763.859 262.718C772.752 280.424 780.481 298.69 786.997 317.402C812.343 391.498 803.676 446.703 733.788 433.064C725.515 431.446 717.441 429.997 709.566 428.72C698.161 426.858 687.155 425.329 676.546 424.131C662.26 422.507 648.669 421.442 635.773 420.938C631.436 420.763 627.18 420.646 623.002 420.587C561.239 419.731 515.426 431.355 480.524 449.4C474.608 452.451 469.001 455.679 463.704 459.084C455.614 464.255 447.889 469.978 440.584 476.21C430.475 484.885 421.154 494.436 412.728 504.753L412.265 505.32C371.443 555.253 358.008 610.532 329.612 620.265C208.226 661.878 131.454 511.03 123.581 363.467C123.184 356.031 122.964 348.617 122.922 341.224C122.898 337.919 122.914 334.623 122.971 331.336C123.096 322.76 123.474 314.24 124.107 305.823C124.343 302.604 124.617 299.403 124.929 296.219C125.273 292.785 125.647 289.372 126.08 285.98C129.168 261.116 134.57 237.461 142.408 216.097Z" fill="url(#paint0_linear_19_2)"/>
<path d="M518.644 297.284C508.95 301.798 508.791 322.014 511.83 328.564L517.339 340.42L552.453 324.106L546.944 312.249C543.899 305.702 528.346 292.786 518.644 297.284Z" fill="#1F332E"/>
<path d="M424.284 467.508C423.666 467.508 423.057 467.359 422.509 467.073C421.961 466.788 421.49 466.374 421.136 465.868C420.782 465.362 420.555 464.777 420.475 464.165C420.395 463.552 420.464 462.929 420.676 462.349C420.848 461.875 421.112 461.439 421.453 461.068C421.795 460.696 422.206 460.397 422.665 460.185L604.003 375.934C604.46 375.721 604.954 375.601 605.458 375.579C605.962 375.558 606.465 375.636 606.938 375.809C607.412 375.982 607.847 376.246 608.218 376.588C608.589 376.929 608.889 377.339 609.102 377.797C609.53 378.72 609.574 379.776 609.224 380.732C608.875 381.687 608.161 382.466 607.238 382.896H607.238L425.899 467.148C425.394 467.384 424.842 467.507 424.284 467.508V467.508Z" fill="#1F332E"/>
<path d="M566.131 331.667L514.296 355.75L595.607 530.758L647.442 506.675L566.131 331.667Z" fill="#E6E6E6"/>
<path d="M371.547 111.361C361.853 115.874 361.693 136.09 364.733 142.64L370.242 154.496L405.356 138.182L399.847 126.326C396.801 119.778 381.248 106.863 371.547 111.361Z" fill="#1F332E"/>
<path d="M588.754 556.606L572.804 564.017C570.406 565.201 567.687 565.567 565.061 565.06C562.746 564.513 561.181 563.097 560.77 561.175L557.058 543.84C556.357 540.57 559.066 536.7 563.498 534.641L572.306 530.549C576.738 528.49 581.442 528.915 583.489 531.56L594.344 545.576C595.548 547.13 595.62 549.239 594.546 551.362C593.24 553.695 591.206 555.537 588.754 556.606V556.606Z" fill="#1F332E"/>
<path d="M539.714 580.937L523.763 588.347C521.366 589.531 518.646 589.898 516.021 589.391C513.705 588.844 512.14 587.428 511.729 585.505L508.018 568.17C507.317 564.9 510.025 561.031 514.457 558.972L523.266 554.88C527.698 552.82 532.401 553.246 534.448 555.89L545.303 569.906C546.507 571.461 546.58 573.57 545.505 575.692C544.199 578.026 542.165 579.868 539.714 580.937V580.937Z" fill="#1F332E"/>
<path d="M432.865 175.513L381.03 199.596L545.391 553.355L597.226 529.272L432.865 175.513Z" fill="#E6E6E6"/>
<path d="M486.649 357.875L480.832 345.076L484.181 343.532L489.979 356.29L573.945 542.461L570.6 544.015" fill="#1F332E"/>
<path d="M552.25 347.237L546.434 334.438L549.782 332.894L555.581 345.652L639.546 531.823L636.202 533.377" fill="#1F332E"/>
<path d="M457.331 203.823L387.097 236.455C382.626 229.498 369.146 193.849 372.173 183.272L369.901 173.186L418.396 150.654L424.887 158.639C434.523 161.596 453.281 195.08 457.331 203.823Z" fill="#E6E6E6"/>
<path d="M420.422 151.086L370.378 174.337C368.531 175.195 366.564 174.88 365.984 173.632C365.901 173.453 365.85 173.26 365.832 173.062L363.242 145.432C363.131 144.249 364.143 142.908 365.689 142.189L398.877 126.77C400.424 126.051 402.101 126.143 402.934 126.99L422.38 146.789C423.375 147.802 422.835 149.535 421.174 150.661C420.935 150.822 420.684 150.965 420.422 151.086V151.086Z" fill="#E6E6E6"/>
<path d="M459.674 367.561C459.132 367.563 458.592 367.499 458.065 367.372C457.323 367.218 456.626 366.896 456.027 366.431C455.429 365.966 454.944 365.37 454.611 364.689L424.016 298.837C422.749 296.111 424.449 292.625 427.805 291.066L472.605 270.251C475.961 268.69 479.722 269.641 480.989 272.367L511.584 338.219C511.89 338.913 512.033 339.667 512.002 340.425C511.971 341.182 511.768 341.922 511.407 342.589C510.621 344.098 509.348 345.297 507.795 345.991L462.995 366.805C461.956 367.295 460.822 367.553 459.674 367.561Z" fill="#1F332E"/>
<path d="M465.8 377.529L413.965 401.612L495.276 576.621L547.111 552.537L465.8 377.529Z" fill="#E6E6E6"/>
<path d="M401.94 153.973L386.74 161.035C383.806 162.398 379.849 160.127 377.919 155.973C375.989 151.82 376.806 147.331 379.739 145.968L394.94 138.905C397.873 137.543 401.831 139.814 403.761 143.967C405.69 148.121 404.874 152.61 401.94 153.973Z" fill="#1F332E"/>
<path d="M419.325 342.676C409.631 347.19 409.471 367.406 412.511 373.956L418.02 385.812L453.134 369.498L447.625 357.641C444.579 351.094 429.026 338.178 419.325 342.676Z" fill="#1F332E"/>
<path d="M258.293 302.324C254.87 304.605 251.366 299.176 254.855 296.996C258.279 294.715 261.783 300.144 258.293 302.324Z" fill="#E6E6E6"/>
<path d="M614.669 224.311C611.245 226.592 607.741 221.163 611.231 218.983C614.654 216.702 618.158 222.132 614.669 224.311Z" fill="#E6E6E6"/>
<path d="M371.766 286.367C368.342 288.648 364.838 283.218 368.328 281.039C371.751 278.758 375.255 284.187 371.766 286.367Z" fill="#E6E6E6"/>
<path d="M258.293 499.128C254.87 501.409 251.366 495.98 254.855 493.8C258.279 491.519 261.783 496.949 258.293 499.128Z" fill="#E6E6E6"/>
<path d="M432.935 54.9885C429.511 57.2697 426.007 51.8403 429.497 49.6604C432.92 47.3794 436.424 52.8088 432.935 54.9885Z" fill="#E6E6E6"/>
<path d="M264.499 159.596C261.075 161.877 257.571 156.448 261.061 154.268C264.484 151.987 267.988 157.417 264.499 159.596Z" fill="#E6E6E6"/>
<path d="M506.762 129.607L504.584 129.129L505.061 126.95L503.608 126.632L503.131 128.811L500.953 128.334L500.634 129.786L502.812 130.264L502.335 132.442L503.788 132.761L504.265 130.582L506.444 131.059L506.762 129.607Z" fill="#E6E6E6"/>
<path d="M152.073 311.144L149.895 310.666L150.372 308.488L148.92 308.17L148.442 310.348L146.263 309.871L145.945 311.323L148.124 311.801L147.647 313.98L149.099 314.298L149.577 312.119L151.755 312.596L152.073 311.144Z" fill="#E6E6E6"/>
<path d="M598.773 403.747C596.96 404.587 594.888 404.673 593.012 403.987C591.135 403.302 589.608 401.899 588.764 400.089L579.799 380.793C578.96 378.981 578.874 376.91 579.561 375.035C580.248 373.16 581.651 371.634 583.462 370.793C585.273 369.952 587.343 369.864 589.219 370.548C591.095 371.232 592.623 372.633 593.466 374.443L602.431 393.739C603.271 395.551 603.357 397.623 602.671 399.499C601.985 401.376 600.583 402.903 598.773 403.747V403.747Z" fill="#1F332E"/>
<path d="M446.293 474.668C444.481 475.508 442.409 475.594 440.532 474.908C438.656 474.222 437.128 472.82 436.285 471.009L427.32 451.714C426.481 449.902 426.395 447.831 427.082 445.956C427.768 444.081 429.171 442.555 430.982 441.714C432.793 440.872 434.864 440.784 436.74 441.469C438.616 442.153 440.144 443.554 440.987 445.364L449.952 464.659C450.792 466.472 450.878 468.544 450.192 470.42C449.506 472.296 448.104 473.824 446.293 474.668Z" fill="#1F332E"/>
<path d="M584.962 361.59L524.852 389.518C521.025 383.564 509.488 353.053 512.079 344.001L513.35 333.874L549.242 316.266L557.195 322.919C568.4 319.13 584.872 346.897 584.962 361.59Z" fill="#E6E6E6"/>
<path d="M557.055 359.653L541.854 366.716C538.921 368.079 534.458 364.719 531.906 359.227C529.355 353.736 529.665 348.158 532.599 346.795L547.8 339.732C550.733 338.369 555.196 341.729 557.748 347.221C560.299 352.712 559.988 358.29 557.055 359.653Z" fill="#1F332E"/>
<path d="M428.139 395.995L422.323 383.196L425.671 381.652L431.47 394.409L515.435 580.581L512.091 582.135" fill="#1F332E"/>
<path d="M485.643 406.982L425.533 434.91C416.665 430.331 403.112 400.371 412.76 389.393L414.031 379.266L449.922 361.658L457.875 368.311C466.122 370.841 482.176 399.499 485.643 406.982Z" fill="#E6E6E6"/>
<path d="M456.499 402.383L441.298 409.445C438.365 410.808 434.179 408.046 431.968 403.288C429.758 398.53 430.346 393.55 433.28 392.187L448.48 385.124C451.414 383.762 455.599 386.524 457.81 391.282C460.02 396.039 459.432 401.02 456.499 402.383Z" fill="#1F332E"/>
<path d="M151.851 272.906C202.28 272.906 243.161 232.026 243.161 181.596C243.161 131.167 202.28 90.2861 151.851 90.2861C101.422 90.2861 60.5408 131.167 60.5408 181.596C60.5408 232.026 101.422 272.906 151.851 272.906Z" fill="url(#paint1_linear_19_2)"/>
<path opacity="0.3" d="M526.235 276.7L581.725 114.639L520.794 274.76C520.493 275.14 520.286 275.586 520.192 276.062C520.097 276.538 520.118 277.029 520.251 277.496C520.385 277.962 520.628 278.39 520.96 278.743C521.292 279.097 521.703 279.367 522.16 279.529C522.617 279.692 523.106 279.744 523.587 279.68C524.068 279.616 524.526 279.438 524.925 279.162C525.323 278.885 525.65 278.518 525.878 278.089C526.106 277.661 526.228 277.185 526.235 276.7H526.235Z" fill="#F0F0F0"/>
<path d="M667.681 180.101C656.818 183.711 644.776 187.257 631.554 190.74C563.165 208.746 471.496 222.791 373.434 230.289C275.373 237.787 182.634 237.842 112.302 230.444C78.0407 226.839 50.9421 221.656 31.7593 215.035C11.4499 208.027 0.778305 199.582 0.0404837 189.935C-1.39631 171.141 35.6892 154.6 67.0532 144.033L67.9027 146.554C24.8315 161.065 1.67298 176.399 2.69264 189.732C3.99076 206.714 44.0432 220.588 112.58 227.799C182.757 235.181 275.325 235.124 373.232 227.638C471.138 220.151 562.638 206.133 630.877 188.168C697.519 170.623 734.998 150.82 733.699 133.838C732.621 119.738 704.828 107.676 655.441 99.8734L655.856 97.2467C691.742 102.917 734.837 113.832 736.352 133.635C737.089 143.282 727.825 153.251 708.818 163.266C697.982 168.974 684.215 174.606 667.681 180.101Z" fill="#1F332E"/>
<path d="M694.512 342.048C699.752 342.048 703.999 337.801 703.999 332.561C703.999 327.321 699.752 323.073 694.512 323.073C689.272 323.073 685.024 327.321 685.024 332.561C685.024 337.801 689.272 342.048 694.512 342.048Z" fill="url(#paint2_linear_19_2)"/>
<path d="M754.794 599.135C760.034 599.135 764.282 594.888 764.282 589.648C764.282 584.408 760.034 580.16 754.794 580.16C749.554 580.16 745.306 584.408 745.306 589.648C745.306 594.888 749.554 599.135 754.794 599.135Z" fill="#F2F2F2"/>
<path d="M431.219 656.904C441.435 656.904 449.717 648.622 449.717 638.406C449.717 628.189 441.435 619.908 431.219 619.908C421.003 619.908 412.721 628.189 412.721 638.406C412.721 648.622 421.003 656.904 431.219 656.904Z" fill="#F2F2F2"/>
<path d="M290.265 412.082C295.505 412.082 299.752 407.835 299.752 402.595C299.752 397.355 295.505 393.107 290.265 393.107C285.025 393.107 280.777 397.355 280.777 402.595C280.777 407.835 285.025 412.082 290.265 412.082Z" fill="#1F332E"/>
<path d="M609.23 424.431L650.166 435.027L675.273 484.342L632.827 486.007L609.23 424.431Z" fill="#E6E6E6"/>
<path d="M514.746 353.339L537.275 375.881L594.497 499.597L583.961 508.699L514.746 353.339Z" fill="#CCCCCC"/>
<path d="M465.758 373.772L467.526 405.594L521.535 530.746L535.344 528.968L465.758 373.772Z" fill="#CCCCCC"/>
<path d="M464.284 502.328L442.237 538.41L458.49 591.307L490.149 562.986L464.284 502.328Z" fill="#E6E6E6"/>
<path d="M659.033 524.499C647.587 524.499 635.041 524.066 621.395 523.201C550.817 518.719 459.397 503.137 363.975 479.326C268.553 455.515 180.53 426.318 116.121 397.117C84.7448 382.891 60.6641 369.425 44.5482 357.093C27.4855 344.037 20.0221 332.657 22.3643 323.27C26.928 304.983 67.3377 300.982 100.434 300.846L100.445 303.505C54.9954 303.692 28.1824 310.94 24.9451 323.914C20.8212 340.439 54.4539 366.237 117.219 394.694C181.487 423.832 269.348 452.973 364.619 476.746C459.89 500.519 551.141 516.075 621.564 520.547C690.338 524.915 732.15 517.943 736.273 501.418C739.697 487.698 717.126 467.486 672.72 444.506L673.942 442.144C706.209 458.842 743.662 482.792 738.854 502.062C736.511 511.449 724.576 517.988 703.38 521.497C691.298 523.497 676.457 524.499 659.033 524.499Z" fill="#1F332E"/>
</g>
<defs>
<linearGradient id="paint0_linear_19_2" x1="461.456" y1="0" x2="461.456" y2="627.283" gradientUnits="userSpaceOnUse">
<stop stop-color="#D9936A"/>
<stop offset="1" stop-color="#BF4F36"/>
</linearGradient>
<linearGradient id="paint1_linear_19_2" x1="151.851" y1="90.2861" x2="151.851" y2="272.906" gradientUnits="userSpaceOnUse">
<stop stop-color="#14D9C5"/>
<stop offset="1" stop-color="#8DF3E9"/>
</linearGradient>
<linearGradient id="paint2_linear_19_2" x1="694.512" y1="323.073" x2="694.512" y2="342.048" gradientUnits="userSpaceOnUse">
<stop stop-color="#14D9C5"/>
<stop offset="1" stop-color="#8DF3E9"/>
</linearGradient>
<clipPath id="clip0_19_2">
<rect width="800" height="732.438" fill="white"/>
</clipPath>
</defs>
</svg>
