<svg width="800" height="589" viewBox="0 0 800 589" fill="none" xmlns="http://www.w3.org/2000/svg">
<g clip-path="url(#clip0_19_48)">
<path d="M713.51 315.528C710.024 355.792 692.471 394.701 667.432 426.881C666.386 428.227 665.326 429.561 664.255 430.882C661.843 433.854 659.369 436.77 656.833 439.63C653.73 443.153 650.537 446.596 647.253 449.958C644.58 452.724 641.845 455.432 639.047 458.08C636.888 460.145 634.704 462.17 632.495 464.155C605.923 488.166 575.398 507.98 543.947 525.309C482.569 559.115 415.293 584.724 345.316 588.453C275.349 592.173 202.306 572.135 150.994 524.412C81.8396 460.099 62.5392 352.829 90.6159 262.664C109.29 202.679 147.405 148.413 199.278 112.971C250.702 77.838 315.576 62.0238 376.973 72.361C425.985 42.5738 490.149 42.0038 543.433 64.052C571.865 75.8192 597.381 93.3158 619.765 114.457C630.017 124.16 639.609 134.536 648.478 145.516C649.384 146.628 650.282 147.75 651.17 148.88C654.889 153.582 658.488 158.38 661.965 163.274C666.956 170.293 671.694 177.468 676.181 184.799C677.414 186.818 678.639 188.846 679.835 190.893C680.639 192.267 681.452 193.65 682.246 195.043C682.265 195.071 682.277 195.103 682.284 195.136C694.724 217.016 704.893 240.364 710.192 264.767C711.127 269.085 711.912 273.422 712.52 277.796V277.805C713.052 281.516 713.454 285.245 713.725 288.993C714.364 297.829 714.292 306.703 713.51 315.528V315.528Z" fill="url(#paint0_linear_19_48)"/>
<path opacity="0.3" d="M530.919 376.398L392.16 260.803L526.962 381.028C527.223 381.468 527.586 381.839 528.019 382.11C528.452 382.382 528.944 382.547 529.453 382.591C529.963 382.634 530.475 382.556 530.948 382.362C531.421 382.168 531.842 381.864 532.174 381.476C532.506 381.087 532.741 380.625 532.859 380.127C532.976 379.629 532.974 379.111 532.851 378.614C532.729 378.118 532.489 377.658 532.153 377.272C531.817 376.887 531.394 376.587 530.919 376.398V376.398Z" fill="#F0F0F0"/>
<path d="M212.709 317.575C258.65 317.575 295.892 280.332 295.892 234.391C295.892 188.45 258.65 151.208 212.709 151.208C166.768 151.208 129.525 188.45 129.525 234.391C129.525 280.332 166.768 317.575 212.709 317.575Z" fill="#F2F2F2"/>
<path d="M286.546 228.783C286.546 238.725 284.589 248.57 280.784 257.756C276.98 266.941 271.404 275.287 264.373 282.317C257.343 289.347 248.997 294.924 239.812 298.728C230.626 302.533 220.781 304.49 210.839 304.489C201.978 304.484 193.185 302.935 184.856 299.91C171.833 295.165 160.361 286.939 151.689 276.126C143.017 265.314 137.478 252.329 135.675 238.587C133.871 224.844 135.872 210.87 141.46 198.186C147.048 185.502 156.009 174.594 167.367 166.649C178.725 158.705 192.044 154.029 205.876 153.13C219.707 152.232 233.52 155.145 245.81 161.552C258.101 167.96 268.398 177.617 275.58 189.471C282.763 201.325 286.556 214.923 286.546 228.783V228.783Z" fill="white"/>
<path d="M197.754 226.914C210.659 226.914 221.12 216.453 221.12 203.548C221.12 190.643 210.659 180.182 197.754 180.182C184.85 180.182 174.388 190.643 174.388 203.548C174.388 216.453 184.85 226.914 197.754 226.914Z" fill="#E4E4E4"/>
<path d="M283.592 207.782C278.528 210.218 272.756 210.748 267.333 209.274C261.91 207.8 257.2 204.421 254.066 199.756C250.932 195.091 249.584 189.453 250.269 183.876C250.954 178.298 253.626 173.154 257.796 169.386C270.187 179.182 279.207 192.607 283.592 207.782Z" fill="#F2F2F2"/>
<path d="M236.075 262.43C240.72 262.43 244.487 258.664 244.487 254.019C244.487 249.373 240.72 245.607 236.075 245.607C231.429 245.607 227.663 249.373 227.663 254.019C227.663 258.664 231.429 262.43 236.075 262.43Z" fill="#E4E4E4"/>
<path d="M201.493 301.686C201.492 302.424 201.395 303.159 201.203 303.873C195.622 303.174 190.138 301.845 184.856 299.91C185.295 297.88 186.469 296.084 188.152 294.868C189.835 293.652 191.908 293.101 193.973 293.321C196.037 293.542 197.948 294.518 199.336 296.062C200.724 297.606 201.493 299.609 201.493 301.686Z" fill="#F2F2F2"/>
<path d="M151.957 225.045C151.956 229.312 150.334 233.42 147.419 236.537C144.503 239.653 140.513 241.546 136.255 241.831C134.327 230.721 134.889 219.321 137.9 208.455C141.827 209.109 145.395 211.136 147.969 214.173C150.542 217.211 151.956 221.063 151.957 225.045Z" fill="#F2F2F2"/>
<path d="M566.822 198.318C568.733 198.318 570.282 196.769 570.282 194.858C570.282 192.947 568.733 191.397 566.822 191.397C564.911 191.397 563.361 192.947 563.361 194.858C563.361 196.769 564.911 198.318 566.822 198.318Z" fill="#6C63FF"/>
<path d="M534.9 114.131C536.016 114.131 536.921 113.226 536.921 112.109C536.921 110.993 536.016 110.088 534.9 110.088C533.783 110.088 532.878 110.993 532.878 112.109C532.878 113.226 533.783 114.131 534.9 114.131Z" fill="#F0F0F0"/>
<path d="M210.578 510.421C211.694 510.421 212.599 509.516 212.599 508.399C212.599 507.282 211.694 506.377 210.578 506.377C209.461 506.377 208.556 507.282 208.556 508.399C208.556 509.516 209.461 510.421 210.578 510.421Z" fill="#F0F0F0"/>
<path d="M546.376 311.945C547.493 311.945 548.398 311.039 548.398 309.923C548.398 308.806 547.493 307.901 546.376 307.901C545.26 307.901 544.355 308.806 544.355 309.923C544.355 311.039 545.26 311.945 546.376 311.945Z" fill="#F0F0F0"/>
<path d="M285.494 331.038C287.405 331.038 288.954 329.488 288.954 327.577C288.954 325.666 287.405 324.117 285.494 324.117C283.582 324.117 282.033 325.666 282.033 327.577C282.033 329.488 283.582 331.038 285.494 331.038Z" fill="#6C63FF"/>
<path d="M160.251 405.604C169.276 405.604 176.592 398.289 176.592 389.264C176.592 380.239 169.276 372.923 160.251 372.923C151.227 372.923 143.911 380.239 143.911 389.264C143.911 398.289 151.227 405.604 160.251 405.604Z" fill="url(#paint1_linear_19_48)"/>
<path d="M249.833 409.479C250.949 409.479 251.855 408.574 251.855 407.457C251.855 406.341 250.949 405.436 249.833 405.436C248.716 405.436 247.811 406.341 247.811 407.457C247.811 408.574 248.716 409.479 249.833 409.479Z" fill="#F0F0F0"/>
<path d="M455.455 93.5688C456.571 93.5688 457.477 92.6637 457.477 91.5471C457.477 90.4305 456.571 89.5254 455.455 89.5254C454.338 89.5254 453.433 90.4305 453.433 91.5471C453.433 92.6637 454.338 93.5688 455.455 93.5688Z" fill="#F0F0F0"/>
<path d="M334.886 524.44C336.002 524.44 336.907 523.535 336.907 522.419C336.907 521.302 336.002 520.397 334.886 520.397C333.769 520.397 332.864 521.302 332.864 522.419C332.864 523.535 333.769 524.44 334.886 524.44Z" fill="#F0F0F0"/>
<path d="M304.977 112.262C306.094 112.262 306.999 111.357 306.999 110.24C306.999 109.123 306.094 108.218 304.977 108.218C303.86 108.218 302.955 109.123 302.955 110.24C302.955 111.357 303.86 112.262 304.977 112.262Z" fill="#F0F0F0"/>
<path d="M357.317 210.399C358.434 210.399 359.339 209.494 359.339 208.378C359.339 207.261 358.434 206.356 357.317 206.356C356.201 206.356 355.295 207.261 355.295 208.378C355.295 209.494 356.201 210.399 357.317 210.399Z" fill="#F0F0F0"/>
<path d="M277.198 451.207C278.315 451.207 279.22 450.302 279.22 449.185C279.22 448.068 278.315 447.163 277.198 447.163C276.082 447.163 275.177 448.068 275.177 449.185C275.177 450.302 276.082 451.207 277.198 451.207Z" fill="#F0F0F0"/>
<path d="M513.664 464.292C514.78 464.292 515.685 463.387 515.685 462.27C515.685 461.153 514.78 460.248 513.664 460.248C512.547 460.248 511.642 461.153 511.642 462.27C511.642 463.387 512.547 464.292 513.664 464.292Z" fill="#F0F0F0"/>
<path d="M408.984 346.526C410.1 346.526 411.005 345.621 411.005 344.505C411.005 343.388 410.1 342.483 408.984 342.483C407.867 342.483 406.962 343.388 406.962 344.505C406.962 345.621 407.867 346.526 408.984 346.526Z" fill="#F0F0F0"/>
<path d="M462.258 210.068C463.375 210.068 464.28 209.163 464.28 208.046C464.28 206.93 463.375 206.025 462.258 206.025C461.142 206.025 460.237 206.93 460.237 208.046C460.237 209.163 461.142 210.068 462.258 210.068Z" fill="#F0F0F0"/>
<path d="M559.116 277.537C561.33 277.537 563.125 275.742 563.125 273.528C563.125 271.314 561.33 269.52 559.116 269.52C556.902 269.52 555.107 271.314 555.107 273.528C555.107 275.742 556.902 277.537 559.116 277.537Z" fill="#FF6584"/>
<path d="M396.488 144.817C398.702 144.817 400.496 143.023 400.496 140.809C400.496 138.595 398.702 136.8 396.488 136.8C394.274 136.8 392.479 138.595 392.479 140.809C392.479 143.023 394.274 144.817 396.488 144.817Z" fill="#FF6584"/>
<path d="M396.488 420.538C398.702 420.538 400.496 418.743 400.496 416.529C400.496 414.315 398.702 412.521 396.488 412.521C394.274 412.521 392.479 414.315 392.479 416.529C392.479 418.743 394.274 420.538 396.488 420.538Z" fill="url(#paint2_linear_19_48)"/>
<path d="M646.235 439.63C644.673 439.631 643.155 440.141 641.909 441.082C640.663 442.023 639.757 443.344 639.328 444.845C639.138 445.488 639.044 446.156 639.047 446.827V458.08C641.842 455.435 644.577 452.727 647.253 449.958C650.534 446.593 653.727 443.15 656.833 439.63H646.235Z" fill="#6C63FF"/>
<path d="M671.684 498.102C659.616 498.102 646.388 497.645 632.002 496.733C557.591 492.008 461.207 475.58 360.603 450.476C260 425.372 167.197 394.59 99.2902 363.802C66.2107 348.804 40.8224 334.607 23.8313 321.605C5.84208 307.841 -2.02664 295.843 0.442758 285.946C5.25431 266.665 47.8582 262.447 82.7514 262.303L82.7632 265.107C34.8458 265.304 6.57686 272.946 3.16368 286.625C-1.18416 304.047 34.2749 331.245 100.448 361.248C168.206 391.968 260.838 422.691 361.283 447.756C461.726 472.82 557.933 489.22 632.18 493.935C704.689 498.541 748.771 491.189 753.118 473.767C756.727 459.302 732.931 437.993 686.114 413.764L687.403 411.274C721.421 428.879 760.908 454.129 755.839 474.446C753.369 484.343 740.786 491.237 718.439 494.936C705.7 497.045 690.054 498.102 671.684 498.102Z" fill="#14D9C5"/>
<path d="M667.881 289.068C719.758 289.068 761.813 247.013 761.813 195.136C761.813 143.259 719.758 101.204 667.881 101.204C616.004 101.204 573.949 143.259 573.949 195.136C573.949 247.013 616.004 289.068 667.881 289.068Z" fill="white"/>
<path d="M667.881 99.8021C649.025 99.8021 630.594 105.393 614.916 115.869C599.239 126.344 587.019 141.233 579.804 158.653C572.588 176.073 570.7 195.242 574.379 213.735C578.057 232.228 587.137 249.214 600.47 262.547C613.802 275.88 630.789 284.96 649.282 288.638C667.775 292.316 686.943 290.429 704.363 283.213C721.783 275.997 736.673 263.778 747.148 248.101C757.623 232.423 763.215 213.991 763.215 195.136C763.26 182.604 760.825 170.187 756.05 158.6C751.275 147.013 744.254 136.486 735.392 127.624C726.531 118.763 716.004 111.742 704.417 106.967C692.83 102.192 680.413 99.757 667.881 99.8021V99.8021ZM667.881 287.666C649.58 287.666 631.69 282.239 616.474 272.072C601.257 261.904 589.398 247.453 582.394 230.546C575.391 213.638 573.559 195.033 577.129 177.084C580.699 159.135 589.512 142.648 602.452 129.707C615.393 116.767 631.88 107.954 649.829 104.384C667.778 100.814 686.383 102.646 703.29 109.649C720.198 116.653 734.649 128.513 744.817 143.729C754.984 158.946 760.411 176.835 760.411 195.136C760.458 207.3 758.097 219.354 753.463 230.601C748.83 241.849 742.016 252.068 733.415 260.67C724.813 269.271 714.594 276.085 703.346 280.719C692.099 285.352 680.045 287.713 667.881 287.666V287.666Z" fill="#2F2E41"/>
<path d="M585.449 217.634C585.019 217.633 584.603 217.484 584.269 217.212C583.936 216.94 583.707 216.562 583.62 216.14C580.934 202.454 581.419 188.334 585.038 174.865C588.658 161.395 595.316 148.934 604.501 138.438C604.831 138.07 605.294 137.848 605.788 137.82C606.282 137.792 606.767 137.962 607.136 138.291C607.506 138.62 607.729 139.082 607.759 139.576C607.788 140.07 607.62 140.555 607.292 140.926C598.49 150.984 592.11 162.925 588.641 175.833C585.172 188.741 584.708 202.272 587.282 215.387C587.338 215.659 587.332 215.94 587.266 216.209C587.2 216.479 587.074 216.73 586.899 216.945C586.723 217.16 586.502 217.334 586.252 217.453C586.001 217.572 585.727 217.633 585.45 217.634H585.449Z" fill="#2F2E41"/>
<path d="M667.822 282.404C700.795 282.404 727.524 255.674 727.524 222.701C727.524 189.729 700.795 162.999 667.822 162.999C634.849 162.999 608.12 189.729 608.12 222.701C608.12 255.674 634.849 282.404 667.822 282.404Z" fill="url(#paint3_linear_19_48)"/>
<path d="M648.847 245.241C644.977 245.134 640.161 245 636.45 242.289C635.345 241.449 634.438 240.377 633.791 239.149C633.143 237.921 632.773 236.566 632.704 235.18C632.637 234.195 632.799 233.207 633.177 232.295C633.554 231.382 634.138 230.57 634.882 229.92C636.82 228.283 639.65 227.898 642.7 228.795L639.54 205.703L641.86 205.385L645.574 232.532L643.637 231.644C641.392 230.614 638.309 230.089 636.393 231.708C635.923 232.131 635.557 232.657 635.323 233.245C635.088 233.833 634.993 234.467 635.044 235.098C635.101 236.13 635.379 237.137 635.86 238.052C636.341 238.966 637.014 239.767 637.832 240.398C640.719 242.507 644.558 242.779 648.913 242.901L648.847 245.241Z" fill="#2F2E41"/>
<path d="M628.069 207.695H615.459V210.036H628.069V207.695Z" fill="#2F2E41"/>
<path d="M667.87 207.695H655.261V210.036H667.87V207.695Z" fill="#2F2E41"/>
<path opacity="0.5" d="M670.33 297.162H616.214C614.196 297.164 612.262 297.966 610.836 299.392C609.41 300.819 608.607 302.753 608.606 304.77V424.713C608.611 432.841 610.84 440.813 615.051 447.765C619.262 454.717 625.294 460.385 632.495 464.155C634.71 462.173 636.894 460.148 639.047 458.08C641.842 455.435 644.577 452.727 647.253 449.958C650.534 446.593 653.727 443.15 656.833 439.63C659.376 436.77 661.849 433.854 664.254 430.882C665.329 429.564 666.389 428.23 667.432 426.881C692.471 394.701 710.024 355.792 713.51 315.528C707.921 309.716 701.215 305.093 693.795 301.937C686.374 298.782 678.393 297.157 670.33 297.162Z" fill="black"/>
<path d="M672.302 322.192C671.014 320.931 669.49 319.938 667.817 319.269C666.144 318.6 664.355 318.269 662.553 318.294C659.422 318.318 656.396 319.428 653.992 321.435C653.608 321.746 653.243 322.08 652.899 322.435L608.606 367.858L576.482 400.805C575.994 401.296 575.59 401.865 575.286 402.487C574.804 403.45 574.557 404.513 574.566 405.59C574.576 406.475 574.761 407.35 575.11 408.163C575.46 408.977 575.968 409.713 576.603 410.329L577.865 411.562L587.025 420.488L587.034 420.479C588.265 421.478 589.805 422.017 591.39 422.002C592.275 421.993 593.15 421.808 593.963 421.458C594.776 421.108 595.512 420.601 596.128 419.965L597.614 418.451L608.251 407.543L608.606 407.179L672.545 341.604C675.086 338.997 676.488 335.488 676.442 331.848C676.397 328.207 674.908 324.734 672.302 322.192L672.302 322.192Z" fill="url(#paint4_linear_19_48)"/>
<path d="M671.852 194.848C673.827 190.674 671.802 186.214 668.335 183.548C663.965 180.187 658.313 180.743 653.343 182.334C647.901 184.075 642.582 187.209 636.702 187.029C634.607 186.991 632.572 186.322 630.864 185.108C629.155 183.894 627.853 182.193 627.128 180.227C623.979 172.152 627.535 163.128 633.016 157.004C636.11 153.497 639.934 150.71 644.22 148.84C648.506 146.969 653.15 146.059 657.825 146.175C663.162 146.44 668.35 148.021 672.927 150.777C677.504 153.534 681.329 157.38 684.059 161.973C684.253 162.287 684.561 162.514 684.917 162.607C685.274 162.701 685.654 162.654 685.977 162.476C690.137 160.616 694.624 159.6 699.179 159.485C703.734 159.37 708.267 160.16 712.515 161.808C718.888 164.406 724.32 168.881 728.09 174.639C731.859 180.397 733.788 187.166 733.62 194.046C733.573 195.851 736.377 195.85 736.424 194.046C736.599 184.427 733.049 175.114 726.517 168.051C723.201 164.53 719.212 161.709 714.786 159.756C710.361 157.802 705.589 156.756 700.752 156.679C695.169 156.56 689.632 157.714 684.562 160.055L686.48 160.558C683.952 156.303 680.557 152.629 676.515 149.774C672.474 146.92 667.876 144.948 663.021 143.988C658.214 143.091 653.271 143.239 648.526 144.421C643.781 145.602 639.345 147.791 635.521 150.837C628.322 156.47 622.867 165.212 623.206 174.587C623.353 178.644 624.559 182.808 627.375 185.831C630.983 189.704 636.369 190.373 641.345 189.381C647.958 188.063 653.996 183.713 660.89 183.847C662.24 183.848 663.575 184.135 664.806 184.69C666.038 185.246 667.137 186.056 668.032 187.067C669.55 188.781 670.466 191.245 669.431 193.433C668.664 195.056 671.081 196.48 671.852 194.848L671.852 194.848Z" fill="#2F2E41"/>
<path d="M224.375 532.146C191.102 532.147 160.17 531.005 132.478 528.701C96.2828 525.689 67.6004 520.847 47.2289 514.311C25.6604 507.39 14.2179 498.733 13.2189 488.582C11.272 468.806 49.9822 450.519 82.7989 438.659L83.7518 441.297C38.6861 457.582 14.6282 474.277 16.0091 488.308C17.768 506.177 60.3039 519.881 132.711 525.906C206.852 532.076 304.421 529.89 407.447 519.747C510.473 509.608 606.597 492.73 678.112 472.224C747.955 452.199 787.003 430.465 785.244 412.595C783.784 397.759 754.212 385.684 701.975 378.594L702.352 375.815C740.308 380.967 785.984 391.482 788.034 412.32C789.034 422.472 779.498 433.193 759.693 444.186C740.987 454.569 713.799 464.91 678.885 474.92C607.212 495.471 510.911 512.381 407.722 522.538C342.989 528.909 280.381 532.146 224.375 532.146Z" fill="#14D9C5"/>
<path d="M783.66 422.428C792.684 422.428 800 415.112 800 406.088C800 397.063 792.684 389.747 783.66 389.747C774.635 389.747 767.319 397.063 767.319 406.088C767.319 415.112 774.635 422.428 783.66 422.428Z" fill="url(#paint5_linear_19_48)"/>
<path d="M309.794 32.6809C318.819 32.6809 326.135 25.365 326.135 16.3405C326.135 7.31587 318.819 0 309.794 0C300.77 0 293.454 7.31587 293.454 16.3405C293.454 25.365 300.77 32.6809 309.794 32.6809Z" fill="#E6E6E6"/>
<path d="M18.1849 421.493C27.2095 421.493 34.5254 414.178 34.5254 405.153C34.5254 396.128 27.2095 388.812 18.1849 388.812C9.16035 388.812 1.84448 396.128 1.84448 405.153C1.84448 414.178 9.16035 421.493 18.1849 421.493Z" fill="#E6E6E6"/>
<path d="M119.127 111.396C124.651 111.396 129.13 106.918 129.13 101.393C129.13 95.8687 124.651 91.3903 119.127 91.3903C113.602 91.3903 109.124 95.8687 109.124 101.393C109.124 106.918 113.602 111.396 119.127 111.396Z" fill="url(#paint6_linear_19_48)"/>
<path d="M72.3944 490.862C77.9188 490.862 82.3973 486.384 82.3973 480.859C82.3973 475.335 77.9188 470.856 72.3944 470.856C66.8699 470.856 62.3915 475.335 62.3915 480.859C62.3915 486.384 66.8699 490.862 72.3944 490.862Z" fill="url(#paint7_linear_19_48)"/>
<path d="M754.686 327.299C760.21 327.299 764.688 322.821 764.688 317.296C764.688 311.772 760.21 307.293 754.686 307.293C749.161 307.293 744.683 311.772 744.683 317.296C744.683 322.821 749.161 327.299 754.686 327.299Z" fill="url(#paint8_linear_19_48)"/>
<path d="M603.273 575.71C612.298 575.71 619.614 568.394 619.614 559.369C619.614 550.345 612.298 543.029 603.273 543.029C594.249 543.029 586.933 550.345 586.933 559.369C586.933 568.394 594.249 575.71 603.273 575.71Z" fill="#E6E6E6"/>
</g>
<defs>
<linearGradient id="paint0_linear_19_48" x1="396.178" y1="48.6251" x2="396.178" y2="588.888" gradientUnits="userSpaceOnUse">
<stop stop-color="#4F3A2E"/>
<stop offset="1" stop-color="#1A1312"/>
</linearGradient>
<linearGradient id="paint1_linear_19_48" x1="160.251" y1="372.923" x2="160.251" y2="405.604" gradientUnits="userSpaceOnUse">
<stop stop-color="#D9936A"/>
<stop offset="1" stop-color="#BF4F36"/>
</linearGradient>
<linearGradient id="paint2_linear_19_48" x1="396.488" y1="412.521" x2="396.488" y2="420.538" gradientUnits="userSpaceOnUse">
<stop stop-color="#14D9C5"/>
<stop offset="1" stop-color="#8DF3E9"/>
</linearGradient>
<linearGradient id="paint3_linear_19_48" x1="667.822" y1="162.999" x2="667.822" y2="282.404" gradientUnits="userSpaceOnUse">
<stop stop-color="#D9936A"/>
<stop offset="1" stop-color="#BF4F36"/>
</linearGradient>
<linearGradient id="paint4_linear_19_48" x1="625.505" y1="318.293" x2="625.505" y2="422.003" gradientUnits="userSpaceOnUse">
<stop stop-color="#D9936A"/>
<stop offset="1" stop-color="#BF4F36"/>
</linearGradient>
<linearGradient id="paint5_linear_19_48" x1="783.66" y1="389.747" x2="783.66" y2="422.428" gradientUnits="userSpaceOnUse">
<stop stop-color="#D9936A"/>
<stop offset="1" stop-color="#BF4F36"/>
</linearGradient>
<linearGradient id="paint6_linear_19_48" x1="119.127" y1="91.3903" x2="119.127" y2="111.396" gradientUnits="userSpaceOnUse">
<stop stop-color="#14D9C5"/>
<stop offset="1" stop-color="#8DF3E9"/>
</linearGradient>
<linearGradient id="paint7_linear_19_48" x1="72.3944" y1="470.856" x2="72.3944" y2="490.862" gradientUnits="userSpaceOnUse">
<stop stop-color="#D9936A"/>
<stop offset="1" stop-color="#BF4F36"/>
</linearGradient>
<linearGradient id="paint8_linear_19_48" x1="754.686" y1="307.293" x2="754.686" y2="327.299" gradientUnits="userSpaceOnUse">
<stop stop-color="#14D9C5"/>
<stop offset="1" stop-color="#8DF3E9"/>
</linearGradient>
<clipPath id="clip0_19_48">
<rect width="800" height="588.888" fill="white"/>
</clipPath>
</defs>
</svg>
