<svg width="800" height="589" viewBox="0 0 800 589" fill="none" xmlns="http://www.w3.org/2000/svg">
<path opacity="0.3" d="M530.919 376.398L392.161 260.803L526.963 381.028C527.224 381.468 527.586 381.839 528.019 382.11C528.452 382.382 528.944 382.547 529.453 382.591C529.963 382.634 530.475 382.556 530.948 382.362C531.422 382.168 531.842 381.864 532.174 381.476C532.506 381.087 532.741 380.625 532.859 380.127C532.977 379.629 532.974 379.111 532.851 378.614C532.729 378.118 532.489 377.658 532.154 377.272C531.818 376.887 531.394 376.587 530.919 376.398Z" fill="#F0F0F0"/>
<path d="M201.493 301.686C201.492 302.424 201.395 303.159 201.203 303.873C195.622 303.174 190.138 301.845 184.856 299.91C185.295 297.88 186.469 296.084 188.152 294.868C189.835 293.652 191.908 293.101 193.973 293.321C196.037 293.542 197.948 294.518 199.336 296.062C200.724 297.606 201.493 299.609 201.493 301.686Z" fill="#F2F2F2"/>
<path d="M566.822 198.318C568.733 198.318 570.282 196.769 570.282 194.858C570.282 192.947 568.733 191.397 566.822 191.397C564.911 191.397 563.361 192.947 563.361 194.858C563.361 196.769 564.911 198.318 566.822 198.318Z" fill="#6C63FF"/>
<path d="M534.9 114.131C536.016 114.131 536.921 113.226 536.921 112.109C536.921 110.993 536.016 110.088 534.9 110.088C533.783 110.088 532.878 110.993 532.878 112.109C532.878 113.226 533.783 114.131 534.9 114.131Z" fill="#F0F0F0"/>
<path d="M210.578 510.421C211.694 510.421 212.599 509.515 212.599 508.399C212.599 507.282 211.694 506.377 210.578 506.377C209.461 506.377 208.556 507.282 208.556 508.399C208.556 509.515 209.461 510.421 210.578 510.421Z" fill="#F0F0F0"/>
<path d="M546.376 311.945C547.493 311.945 548.398 311.039 548.398 309.923C548.398 308.806 547.493 307.901 546.376 307.901C545.26 307.901 544.355 308.806 544.355 309.923C544.355 311.039 545.26 311.945 546.376 311.945Z" fill="#F0F0F0"/>
<path d="M285.494 331.038C287.405 331.038 288.954 329.488 288.954 327.577C288.954 325.666 287.405 324.117 285.494 324.117C283.582 324.117 282.033 325.666 282.033 327.577C282.033 329.488 283.582 331.038 285.494 331.038Z" fill="#6C63FF"/>
<path d="M249.833 409.479C250.949 409.479 251.855 408.574 251.855 407.457C251.855 406.341 250.949 405.436 249.833 405.436C248.716 405.436 247.811 406.341 247.811 407.457C247.811 408.574 248.716 409.479 249.833 409.479Z" fill="#F0F0F0"/>
<path d="M455.455 93.5688C456.571 93.5688 457.477 92.6637 457.477 91.5471C457.477 90.4305 456.571 89.5254 455.455 89.5254C454.338 89.5254 453.433 90.4305 453.433 91.5471C453.433 92.6637 454.338 93.5688 455.455 93.5688Z" fill="#F0F0F0"/>
<path d="M334.886 524.44C336.002 524.44 336.907 523.535 336.907 522.419C336.907 521.302 336.002 520.397 334.886 520.397C333.769 520.397 332.864 521.302 332.864 522.419C332.864 523.535 333.769 524.44 334.886 524.44Z" fill="#F0F0F0"/>
<path d="M304.977 112.262C306.094 112.262 306.999 111.357 306.999 110.24C306.999 109.123 306.094 108.218 304.977 108.218C303.86 108.218 302.955 109.123 302.955 110.24C302.955 111.357 303.86 112.262 304.977 112.262Z" fill="#F0F0F0"/>
<path d="M357.317 210.4C358.434 210.4 359.339 209.494 359.339 208.378C359.339 207.261 358.434 206.356 357.317 206.356C356.201 206.356 355.295 207.261 355.295 208.378C355.295 209.494 356.201 210.4 357.317 210.4Z" fill="#F0F0F0"/>
<path d="M277.198 451.207C278.315 451.207 279.22 450.302 279.22 449.185C279.22 448.068 278.315 447.163 277.198 447.163C276.082 447.163 275.177 448.068 275.177 449.185C275.177 450.302 276.082 451.207 277.198 451.207Z" fill="#F0F0F0"/>
<path d="M513.664 464.292C514.78 464.292 515.685 463.387 515.685 462.27C515.685 461.153 514.78 460.248 513.664 460.248C512.547 460.248 511.642 461.153 511.642 462.27C511.642 463.387 512.547 464.292 513.664 464.292Z" fill="#F0F0F0"/>
<path d="M408.984 346.526C410.1 346.526 411.005 345.621 411.005 344.505C411.005 343.388 410.1 342.483 408.984 342.483C407.867 342.483 406.962 343.388 406.962 344.505C406.962 345.621 407.867 346.526 408.984 346.526Z" fill="#F0F0F0"/>
<path d="M462.258 210.068C463.375 210.068 464.28 209.163 464.28 208.046C464.28 206.93 463.375 206.025 462.258 206.025C461.142 206.025 460.237 206.93 460.237 208.046C460.237 209.163 461.142 210.068 462.258 210.068Z" fill="#F0F0F0"/>
<path d="M559.116 277.537C561.33 277.537 563.125 275.742 563.125 273.528C563.125 271.314 561.33 269.52 559.116 269.52C556.902 269.52 555.108 271.314 555.108 273.528C555.108 275.742 556.902 277.537 559.116 277.537Z" fill="#FF6584"/>
<path d="M396.488 144.817C398.702 144.817 400.496 143.023 400.496 140.809C400.496 138.595 398.702 136.8 396.488 136.8C394.274 136.8 392.479 138.595 392.479 140.809C392.479 143.023 394.274 144.817 396.488 144.817Z" fill="#FF6584"/>
<path d="M396.488 420.538C398.702 420.538 400.496 418.743 400.496 416.529C400.496 414.315 398.702 412.521 396.488 412.521C394.274 412.521 392.479 414.315 392.479 416.529C392.479 418.743 394.274 420.538 396.488 420.538Z" fill="url(#paint0_linear_56_50)"/>
<defs>
<linearGradient id="paint0_linear_56_50" x1="396.488" y1="412.521" x2="396.488" y2="420.538" gradientUnits="userSpaceOnUse">
<stop stop-color="#14D9C5"/>
<stop offset="1" stop-color="#8DF3E9"/>
</linearGradient>
</defs>
</svg>
