<svg width="800" height="589" viewBox="0 0 800 589" fill="none" xmlns="http://www.w3.org/2000/svg">
<g clip-path="url(#clip0_59_6)">
<path d="M160.251 405.604C169.276 405.604 176.592 398.289 176.592 389.264C176.592 380.239 169.276 372.924 160.251 372.924C151.227 372.924 143.911 380.239 143.911 389.264C143.911 398.289 151.227 405.604 160.251 405.604Z" fill="url(#paint0_linear_59_6)"/>
<path d="M783.66 422.428C792.684 422.428 800 415.112 800 406.088C800 397.063 792.684 389.747 783.66 389.747C774.635 389.747 767.319 397.063 767.319 406.088C767.319 415.112 774.635 422.428 783.66 422.428Z" fill="url(#paint1_linear_59_6)"/>
<path d="M309.794 32.6809C318.819 32.6809 326.135 25.365 326.135 16.3405C326.135 7.31587 318.819 0 309.794 0C300.77 0 293.454 7.31587 293.454 16.3405C293.454 25.365 300.77 32.6809 309.794 32.6809Z" fill="#E6E6E6"/>
<path d="M18.1849 421.493C27.2095 421.493 34.5254 414.178 34.5254 405.153C34.5254 396.128 27.2095 388.812 18.1849 388.812C9.16035 388.812 1.84448 396.128 1.84448 405.153C1.84448 414.178 9.16035 421.493 18.1849 421.493Z" fill="#E6E6E6"/>
<path d="M119.127 111.396C124.651 111.396 129.13 106.918 129.13 101.393C129.13 95.8688 124.651 91.3904 119.127 91.3904C113.602 91.3904 109.124 95.8688 109.124 101.393C109.124 106.918 113.602 111.396 119.127 111.396Z" fill="url(#paint2_linear_59_6)"/>
<path d="M72.3944 490.862C77.9188 490.862 82.3973 486.384 82.3973 480.859C82.3973 475.335 77.9188 470.856 72.3944 470.856C66.8699 470.856 62.3915 475.335 62.3915 480.859C62.3915 486.384 66.8699 490.862 72.3944 490.862Z" fill="url(#paint3_linear_59_6)"/>
<path d="M754.686 327.299C760.21 327.299 764.688 322.821 764.688 317.296C764.688 311.772 760.21 307.293 754.686 307.293C749.161 307.293 744.683 311.772 744.683 317.296C744.683 322.821 749.161 327.299 754.686 327.299Z" fill="url(#paint4_linear_59_6)"/>
<path d="M603.273 575.71C612.298 575.71 619.613 568.394 619.613 559.369C619.613 550.345 612.298 543.029 603.273 543.029C594.248 543.029 586.932 550.345 586.932 559.369C586.932 568.394 594.248 575.71 603.273 575.71Z" fill="#E6E6E6"/>
</g>
<defs>
<linearGradient id="paint0_linear_59_6" x1="160.251" y1="372.924" x2="160.251" y2="405.604" gradientUnits="userSpaceOnUse">
<stop stop-color="#D9936A"/>
<stop offset="1" stop-color="#BF4F36"/>
</linearGradient>
<linearGradient id="paint1_linear_59_6" x1="783.66" y1="389.747" x2="783.66" y2="422.428" gradientUnits="userSpaceOnUse">
<stop stop-color="#D9936A"/>
<stop offset="1" stop-color="#BF4F36"/>
</linearGradient>
<linearGradient id="paint2_linear_59_6" x1="119.127" y1="91.3904" x2="119.127" y2="111.396" gradientUnits="userSpaceOnUse">
<stop stop-color="#14D9C5"/>
<stop offset="1" stop-color="#8DF3E9"/>
</linearGradient>
<linearGradient id="paint3_linear_59_6" x1="72.3944" y1="470.856" x2="72.3944" y2="490.862" gradientUnits="userSpaceOnUse">
<stop stop-color="#D9936A"/>
<stop offset="1" stop-color="#BF4F36"/>
</linearGradient>
<linearGradient id="paint4_linear_59_6" x1="754.686" y1="307.293" x2="754.686" y2="327.299" gradientUnits="userSpaceOnUse">
<stop stop-color="#14D9C5"/>
<stop offset="1" stop-color="#8DF3E9"/>
</linearGradient>
<clipPath id="clip0_59_6">
<rect width="800" height="588.888" fill="white"/>
</clipPath>
</defs>
</svg>
