<svg width="800" height="589" viewBox="0 0 800 589" fill="none" xmlns="http://www.w3.org/2000/svg">
<path d="M648.435 243.392C647 246 640.161 247.999 636.45 245.289C635.346 244.449 634.438 243.377 633.791 242.149C633.144 240.921 632.773 239.566 632.704 238.18C632.637 237.195 632.799 236.207 633.177 235.295C633.555 234.382 634.138 233.569 634.882 232.92C637.291 230.817 639.54 229.5 642.7 228.794L639.54 205.703L641.86 205.385L645.574 232.532L643.5 231.5C640.863 231.5 638.5 232.5 636.394 234.708C635.923 235.131 635.557 235.657 635.323 236.245C635.089 236.833 634.993 237.467 635.044 238.098C635.101 239.129 635.379 240.137 635.86 241.051C636.341 241.966 637.014 242.766 637.832 243.398C640.5 245 644 244 647.5 241.5L648.435 243.392Z" fill="#2F2E41"/>
<path d="M625 206H619V212H625V206Z" fill="#2F2E41"/>
<path d="M665 206H659V212H665V206Z" fill="#2F2E41"/>
</svg>
