<svg width="800" height="589" viewBox="0 0 800 589" fill="none" xmlns="http://www.w3.org/2000/svg">
<path d="M212.709 317.574C258.65 317.574 295.892 280.332 295.892 234.391C295.892 188.45 258.65 151.208 212.709 151.208C166.768 151.208 129.525 188.45 129.525 234.391C129.525 280.332 166.768 317.574 212.709 317.574Z" fill="#F2F2F2"/>
<path d="M286.546 228.783C286.546 238.725 284.589 248.57 280.784 257.756C276.98 266.941 271.404 275.287 264.373 282.318C257.343 289.348 248.997 294.924 239.812 298.728C230.626 302.533 220.781 304.49 210.839 304.49C201.978 304.485 193.185 302.935 184.856 299.91C171.833 295.165 160.361 286.939 151.689 276.126C143.017 265.314 137.478 252.329 135.675 238.587C133.871 224.844 135.872 210.87 141.46 198.186C147.048 185.502 156.009 174.594 167.367 166.65C178.725 158.705 192.044 154.029 205.876 153.131C219.707 152.232 233.52 155.145 245.81 161.553C258.101 167.96 268.398 177.617 275.58 189.471C282.763 201.325 286.556 214.923 286.546 228.783Z" fill="white"/>
<path d="M197.754 226.914C210.659 226.914 221.12 216.453 221.12 203.548C221.12 190.643 210.659 180.182 197.754 180.182C184.85 180.182 174.388 190.643 174.388 203.548C174.388 216.453 184.85 226.914 197.754 226.914Z" fill="#E4E4E4"/>
<path d="M283.592 207.781C278.528 210.218 272.756 210.748 267.333 209.274C261.91 207.8 257.2 204.421 254.066 199.756C250.932 195.091 249.584 189.453 250.269 183.876C250.954 178.298 253.626 173.154 257.796 169.386C270.187 179.182 279.207 192.607 283.592 207.781Z" fill="#F2F2F2"/>
<path d="M236.075 262.431C240.72 262.431 244.487 258.664 244.487 254.019C244.487 249.373 240.72 245.607 236.075 245.607C231.429 245.607 227.663 249.373 227.663 254.019C227.663 258.664 231.429 262.431 236.075 262.431Z" fill="#E4E4E4"/>
<path d="M201.493 301.685C201.492 302.424 201.395 303.159 201.203 303.872C195.622 303.174 190.138 301.845 184.856 299.909C185.295 297.88 186.469 296.084 188.152 294.868C189.835 293.652 191.908 293.101 193.973 293.321C196.037 293.541 197.948 294.518 199.336 296.062C200.724 297.606 201.493 299.609 201.493 301.685Z" fill="#F2F2F2"/>
<path d="M151.957 225.045C151.956 229.312 150.334 233.42 147.419 236.537C144.503 239.653 140.513 241.546 136.255 241.831C134.327 230.721 134.889 219.321 137.9 208.455C141.827 209.109 145.395 211.136 147.969 214.173C150.542 217.211 151.956 221.063 151.957 225.045Z" fill="#F2F2F2"/>
</svg>
