<svg width="800" height="589" viewBox="0 0 800 589" fill="none" xmlns="http://www.w3.org/2000/svg">
<g clip-path="url(#clip0_56_290)">
<path d="M671.684 498.102C659.616 498.102 646.388 497.646 632.002 496.734C557.591 492.008 461.207 475.58 360.603 450.476C260 425.372 167.197 394.59 99.2902 363.802C66.2107 348.804 40.8224 334.607 23.8313 321.605C5.84208 307.841 -2.02664 295.843 0.442758 285.946C5.25431 266.665 47.8582 262.447 82.7514 262.304L82.7632 265.108C34.8458 265.304 6.57686 272.946 3.16368 286.625C-1.18416 304.047 34.2748 331.246 100.448 361.248C168.206 391.968 260.838 422.691 361.283 447.756C461.726 472.82 557.933 489.22 632.18 493.935C704.689 498.541 748.771 491.19 753.118 473.767C756.727 459.302 732.931 437.993 686.114 413.765L687.403 411.275C721.421 428.88 760.908 454.13 755.839 474.446C753.369 484.343 740.786 491.237 718.439 494.936C705.7 497.045 690.054 498.102 671.684 498.102Z" fill="#14D9C5"/>
</g>
<defs>
<clipPath id="clip0_56_290">
<rect width="800" height="588.888" fill="white"/>
</clipPath>
</defs>
</svg>
