<svg width="800" height="589" viewBox="0 0 800 589" fill="none" xmlns="http://www.w3.org/2000/svg">
<g clip-path="url(#clip0_55_2)">
<path d="M713.51 315.528C710.024 355.792 692.471 394.701 667.432 426.881C666.385 428.227 665.326 429.561 664.255 430.882C661.843 433.854 659.369 436.77 656.833 439.63C653.73 443.153 650.537 446.596 647.253 449.958C644.58 452.724 641.845 455.432 639.047 458.08C636.888 460.145 634.704 462.17 632.495 464.155C605.923 488.166 575.398 507.98 543.947 525.309C482.569 559.115 415.293 584.724 345.316 588.453C275.349 592.173 202.306 572.135 150.994 524.412C81.8396 460.099 62.5392 352.829 90.6159 262.664C109.29 202.679 147.405 148.413 199.278 112.971C250.702 77.838 315.576 62.0238 376.973 72.361C425.985 42.5738 490.149 42.0038 543.433 64.052C571.865 75.8192 597.381 93.3158 619.765 114.457C630.017 124.16 639.609 134.536 648.478 145.516C649.384 146.628 650.282 147.75 651.169 148.88C654.889 153.582 658.488 158.38 661.965 163.274C666.956 170.293 671.694 177.468 676.181 184.799C677.414 186.818 678.639 188.846 679.835 190.893C680.639 192.267 681.452 193.65 682.246 195.043C682.265 195.071 682.277 195.103 682.284 195.136C694.724 217.016 704.893 240.364 710.192 264.767C711.127 269.085 711.912 273.422 712.52 277.796V277.805C713.052 281.516 713.454 285.245 713.725 288.993C714.364 297.829 714.292 306.703 713.51 315.528Z" fill="url(#paint0_linear_55_2)"/>
<path d="M646.235 439.63C644.673 439.631 643.155 440.141 641.909 441.082C640.663 442.023 639.757 443.344 639.328 444.845C639.138 445.489 639.044 446.156 639.047 446.827V458.08C641.842 455.435 644.577 452.727 647.253 449.958C650.534 446.593 653.727 443.15 656.833 439.63H646.235Z" fill="#6C63FF"/>
<path d="M648.847 245.241C644.977 245.134 640.161 245 636.45 242.289C635.346 241.449 634.438 240.377 633.791 239.149C633.144 237.921 632.773 236.566 632.704 235.18C632.637 234.195 632.799 233.207 633.177 232.295C633.555 231.382 634.138 230.57 634.882 229.92C636.82 228.283 639.65 227.898 642.7 228.795L639.54 205.703L641.86 205.385L645.574 232.532L643.637 231.644C641.392 230.614 638.309 230.089 636.394 231.708C635.923 232.131 635.557 232.657 635.323 233.245C635.089 233.833 634.993 234.467 635.044 235.098C635.101 236.13 635.379 237.137 635.86 238.052C636.341 238.966 637.014 239.767 637.832 240.398C640.719 242.507 644.558 242.779 648.913 242.901L648.847 245.241Z" fill="#2F2E41"/>
<path d="M628.069 207.695H615.459V210.036H628.069V207.695Z" fill="#2F2E41"/>
<path d="M667.87 207.695H655.261V210.036H667.87V207.695Z" fill="#2F2E41"/>
<path opacity="0.5" d="M670.33 297.162H616.214C614.196 297.164 612.262 297.966 610.836 299.392C609.41 300.819 608.607 302.753 608.606 304.77V424.713C608.611 432.841 610.84 440.813 615.051 447.765C619.262 454.717 625.294 460.385 632.495 464.155C634.71 462.173 636.894 460.148 639.047 458.08C641.842 455.435 644.577 452.727 647.253 449.958C650.534 446.593 653.727 443.15 656.833 439.63C659.376 436.77 661.849 433.854 664.254 430.882C665.329 429.564 666.389 428.23 667.432 426.881C692.471 394.701 710.024 355.792 713.51 315.528C707.921 309.716 701.215 305.093 693.795 301.937C686.374 298.782 678.393 297.157 670.33 297.162Z" fill="black"/>
<path d="M672.302 322.192C671.014 320.931 669.49 319.938 667.817 319.269C666.144 318.6 664.355 318.269 662.553 318.294C659.422 318.318 656.396 319.428 653.992 321.435C653.608 321.746 653.243 322.08 652.899 322.435L608.606 367.858L576.482 400.805C575.994 401.297 575.59 401.865 575.286 402.487C574.804 403.45 574.557 404.513 574.566 405.59C574.576 406.475 574.761 407.35 575.11 408.163C575.46 408.977 575.968 409.713 576.603 410.329L577.865 411.562L587.025 420.488L587.034 420.479C588.265 421.478 589.805 422.017 591.39 422.002C592.275 421.993 593.15 421.808 593.963 421.458C594.776 421.108 595.512 420.601 596.128 419.965L597.614 418.451L608.251 407.543L608.606 407.179L672.545 341.604C675.086 338.997 676.488 335.488 676.442 331.848C676.397 328.207 674.908 324.734 672.302 322.192L672.302 322.192Z" fill="url(#paint1_linear_55_2)"/>
</g>
<defs>
<linearGradient id="paint0_linear_55_2" x1="396.178" y1="48.6251" x2="396.178" y2="588.888" gradientUnits="userSpaceOnUse">
<stop stop-color="#4F3A2E"/>
<stop offset="1" stop-color="#1A1312"/>
</linearGradient>
<linearGradient id="paint1_linear_55_2" x1="625.505" y1="318.293" x2="625.505" y2="422.003" gradientUnits="userSpaceOnUse">
<stop stop-color="#D9936A"/>
<stop offset="1" stop-color="#BF4F36"/>
</linearGradient>
<clipPath id="clip0_55_2">
<rect width="800" height="588.888" fill="white"/>
</clipPath>
</defs>
</svg>
