<svg width="800" height="589" viewBox="0 0 800 589" fill="none" xmlns="http://www.w3.org/2000/svg">
<path d="M667.881 289.068C719.758 289.068 761.813 247.013 761.813 195.136C761.813 143.259 719.758 101.204 667.881 101.204C616.004 101.204 573.949 143.259 573.949 195.136C573.949 247.013 616.004 289.068 667.881 289.068Z" fill="white"/>
<path d="M667.881 99.8019C649.026 99.8019 630.594 105.393 614.916 115.869C599.239 126.344 587.02 141.233 579.804 158.653C572.588 176.073 570.7 195.241 574.379 213.734C578.057 232.227 587.137 249.214 600.47 262.547C613.802 275.88 630.789 284.959 649.282 288.638C667.775 292.316 686.944 290.428 704.364 283.213C721.784 275.997 736.673 263.778 747.148 248.1C757.623 232.423 763.215 213.991 763.215 195.136C763.26 182.604 760.825 170.187 756.05 158.6C751.275 147.013 744.254 136.486 735.393 127.624C726.531 118.762 716.004 111.742 704.417 106.967C692.83 102.192 680.413 99.7568 667.881 99.8019ZM667.881 287.666C649.58 287.666 631.691 282.239 616.474 272.072C601.258 261.904 589.398 247.453 582.394 230.545C575.391 213.638 573.559 195.033 577.129 177.084C580.699 159.135 589.512 142.648 602.452 129.707C615.393 116.767 631.88 107.954 649.829 104.384C667.778 100.813 686.383 102.646 703.291 109.649C720.198 116.653 734.649 128.512 744.817 143.729C754.984 158.945 760.411 176.835 760.411 195.136C760.458 207.3 758.097 219.354 753.464 230.601C748.83 241.849 742.016 252.068 733.415 260.67C724.813 269.271 714.594 276.085 703.346 280.718C692.099 285.352 680.045 287.713 667.881 287.666Z" fill="#2F2E41"/>
<path d="M585.449 217.634C585.019 217.633 584.603 217.484 584.269 217.212C583.936 216.94 583.707 216.562 583.62 216.141C580.934 202.454 581.419 188.335 585.038 174.865C588.658 161.395 595.316 148.934 604.501 138.439C604.831 138.07 605.294 137.848 605.788 137.82C606.282 137.793 606.767 137.962 607.136 138.291C607.506 138.62 607.729 139.082 607.759 139.576C607.788 140.07 607.62 140.555 607.292 140.926C598.49 150.984 592.11 162.925 588.641 175.833C585.172 188.741 584.708 202.272 587.282 215.388C587.338 215.659 587.332 215.94 587.266 216.21C587.2 216.479 587.074 216.73 586.899 216.945C586.723 217.16 586.502 217.334 586.252 217.453C586.001 217.572 585.727 217.634 585.45 217.634H585.449Z" fill="#2F2E41"/>
<path d="M667.822 282.404C700.795 282.404 727.524 255.674 727.524 222.701C727.524 189.729 700.795 162.999 667.822 162.999C634.849 162.999 608.12 189.729 608.12 222.701C608.12 255.674 634.849 282.404 667.822 282.404Z" fill="url(#paint0_linear_56_146)"/>
<path d="M671.852 194.848C673.827 190.674 671.802 186.214 668.335 183.548C663.965 180.187 658.313 180.743 653.343 182.334C647.901 184.075 642.582 187.209 636.702 187.029C634.607 186.991 632.572 186.322 630.864 185.108C629.155 183.894 627.853 182.193 627.128 180.227C623.979 172.152 627.535 163.127 633.016 157.004C636.11 153.497 639.934 150.71 644.22 148.839C648.506 146.969 653.15 146.059 657.825 146.175C663.162 146.44 668.35 148.021 672.927 150.777C677.504 153.534 681.329 157.38 684.059 161.973C684.253 162.286 684.561 162.513 684.917 162.607C685.274 162.701 685.654 162.654 685.977 162.476C690.137 160.616 694.624 159.599 699.179 159.485C703.734 159.37 708.267 160.16 712.515 161.808C718.888 164.406 724.32 168.881 728.09 174.639C731.859 180.397 733.788 187.166 733.62 194.046C733.573 195.851 736.377 195.85 736.424 194.046C736.599 184.427 733.049 175.113 726.517 168.051C723.201 164.53 719.212 161.709 714.786 159.755C710.361 157.802 705.589 156.756 700.752 156.678C695.169 156.56 689.632 157.714 684.562 160.055L686.48 160.558C683.952 156.303 680.557 152.629 676.515 149.774C672.474 146.919 667.876 144.948 663.021 143.988C658.214 143.091 653.271 143.239 648.526 144.42C643.781 145.602 639.345 147.79 635.521 150.837C628.322 156.47 622.867 165.212 623.206 174.587C623.353 178.644 624.559 182.808 627.375 185.831C630.983 189.703 636.369 190.373 641.345 189.381C647.958 188.063 653.996 183.713 660.89 183.847C662.24 183.848 663.575 184.135 664.806 184.69C666.038 185.245 667.137 186.056 668.032 187.067C669.55 188.781 670.466 191.245 669.431 193.433C668.664 195.056 671.081 196.48 671.852 194.848L671.852 194.848Z" fill="#2F2E41"/>
<defs>
<linearGradient id="paint0_linear_56_146" x1="667.822" y1="162.999" x2="667.822" y2="282.404" gradientUnits="userSpaceOnUse">
<stop stop-color="#D9936A"/>
<stop offset="1" stop-color="#BF4F36"/>
</linearGradient>
</defs>
</svg>
