<svg width="800" height="589" viewBox="0 0 800 589" fill="none" xmlns="http://www.w3.org/2000/svg">
<path d="M648.847 245.241C644.977 245.134 640.161 244.999 636.45 242.289C635.346 241.449 634.438 240.377 633.791 239.149C633.144 237.921 632.773 236.566 632.704 235.18C632.637 234.195 632.799 233.207 633.177 232.295C633.555 231.382 634.138 230.569 634.882 229.92C636.82 228.282 639.65 227.898 642.7 228.794L639.54 205.703L641.86 205.385L645.574 232.532L643.637 231.643C641.392 230.613 638.309 230.089 636.394 231.708C635.923 232.131 635.557 232.657 635.323 233.245C635.089 233.833 634.993 234.467 635.044 235.098C635.101 236.129 635.379 237.137 635.86 238.051C636.341 238.966 637.014 239.766 637.832 240.398C640.719 242.507 644.558 242.779 648.913 242.901L648.847 245.241Z" fill="#2F2E41"/>
<path d="M628.069 207.695H615.459V210.036H628.069V207.695Z" fill="#2F2E41"/>
<path d="M667.87 207.695H655.261V210.036H667.87V207.695Z" fill="#2F2E41"/>
</svg>
