<svg width="800" height="589" viewBox="0 0 800 589" fill="none" xmlns="http://www.w3.org/2000/svg">
<path d="M224.375 532.146C191.102 532.147 160.17 531.005 132.478 528.701C96.2828 525.689 67.6004 520.847 47.2289 514.311C25.6604 507.39 14.2179 498.733 13.2189 488.582C11.272 468.806 49.9822 450.519 82.7989 438.659L83.7518 441.297C38.6861 457.582 14.6282 474.277 16.0091 488.308C17.768 506.177 60.3039 519.881 132.711 525.906C206.852 532.076 304.421 529.89 407.447 519.747C510.473 509.608 606.597 492.73 678.112 472.224C747.955 452.199 787.003 430.465 785.244 412.595C783.784 397.759 754.211 385.684 701.975 378.594L702.352 375.815C740.308 380.967 785.984 391.482 788.034 412.32C789.034 422.472 779.498 433.193 759.693 444.186C740.987 454.569 713.799 464.91 678.885 474.92C607.212 495.471 510.911 512.381 407.722 522.538C342.989 528.909 280.381 532.146 224.375 532.146Z" fill="#14D9C5"/>
</svg>
