<svg width="800" height="733" viewBox="0 0 800 733" fill="none" xmlns="http://www.w3.org/2000/svg">
<g clip-path="url(#clip0_24_94)">
<path d="M512.542 584.927L520.229 602.164C513.98 601.169 508.169 606.506 508.039 613.359C507.908 620.213 513.482 627.343 519.731 628.318C518.537 633.639 513.383 635.985 508.909 638.135C504.435 640.286 499.614 643.853 499.946 649.523C500.214 654.075 503.978 658.094 507.976 659.71C511.974 661.326 516.169 661.078 520.218 660.807C514.082 667.225 513.484 679.289 518.872 687.944C524.261 696.599 535.022 700.859 543.079 697.528C537.386 704.61 538.623 717.579 545.688 724.887C552.81 732.255 563.133 732.968 572.156 732.192C595.136 730.249 617.032 721.572 635.105 707.246C642.003 701.764 648.447 695.317 652.382 686.908C656.317 678.499 657.477 667.852 653.811 658.282C654.8 670.27 666.799 679.738 677.593 680.268C688.387 680.798 697.811 674.718 705.82 667.785C716.47 658.565 726.331 645.641 724.869 629.694C724.145 621.8 720.697 614.208 717.316 606.854L710.759 592.596C708.112 586.84 705.406 580.987 701.422 576.157C697.438 571.327 691.909 567.588 686.375 567.623C687.64 561.843 688.911 555.847 687.851 549.706C686.791 543.565 682.731 537.206 677.209 535.767C670.182 533.937 664.226 540.422 657.16 539.811C650.36 539.222 644.74 532.398 638.137 529.694C635.418 528.518 632.415 528.16 629.496 528.665C626.578 529.17 623.869 530.515 621.703 532.536C617.517 536.623 615.772 543.527 617.275 550.06C618.59 555.783 622.092 560.83 624.218 566.349C626.344 571.868 626.673 578.965 622.591 581.979C617.665 585.617 610.167 580.667 606.319 574.679C602.47 568.691 600.26 561.441 595.394 556.405C589.65 550.461 580.659 549.068 574.745 553.206C568.831 557.343 566.569 566.609 569.551 574.485C571.988 580.925 577.573 587.44 575.636 593.505C573.589 599.914 564.632 599.103 559.229 594.573C553.826 590.043 550.239 583.22 544.902 578.589C539.482 573.885 532.404 571.824 526.19 573.141C523.038 573.872 520.121 575.385 517.708 577.541C515.296 579.697 513.465 582.426 512.385 585.476" fill="#E6E6E6"/>
<path d="M637.004 536.487L621.054 543.898C618.656 545.082 615.937 545.448 613.311 544.942C610.996 544.394 609.431 542.978 609.02 541.056L605.308 523.721C604.607 520.451 607.316 516.582 611.748 514.522L620.556 510.43C624.988 508.371 629.692 508.796 631.739 511.441L642.594 525.457C643.798 527.011 643.87 529.12 642.796 531.243C641.49 533.576 639.456 535.418 637.004 536.487V536.487Z" fill="#1F332E"/>
<path d="M518.644 297.284C508.95 301.798 508.791 322.014 511.83 328.564L517.339 340.42L552.453 324.106L546.944 312.249C543.899 305.702 528.346 292.786 518.644 297.284Z" fill="#1F332E"/>
<path d="M424.284 467.508C423.666 467.508 423.057 467.359 422.509 467.073C421.961 466.788 421.49 466.374 421.136 465.868C420.782 465.362 420.555 464.777 420.475 464.165C420.395 463.552 420.464 462.929 420.676 462.349C420.848 461.875 421.112 461.439 421.453 461.068C421.795 460.696 422.206 460.396 422.665 460.185L604.003 375.933C604.46 375.721 604.954 375.601 605.458 375.579C605.962 375.558 606.465 375.636 606.938 375.809C607.412 375.982 607.847 376.246 608.218 376.587C608.589 376.928 608.889 377.339 609.102 377.796C609.53 378.72 609.574 379.775 609.224 380.731C608.875 381.687 608.161 382.466 607.238 382.896H607.238L425.899 467.148C425.394 467.384 424.842 467.507 424.284 467.508V467.508Z" fill="#1F332E"/>
<path d="M566.131 331.667L514.296 355.75L595.607 530.759L647.442 506.675L566.131 331.667Z" fill="#E6E6E6"/>
<path d="M371.547 111.361C361.853 115.874 361.693 136.09 364.733 142.64L370.242 154.497L405.356 138.182L399.847 126.326C396.801 119.778 381.248 106.863 371.547 111.361Z" fill="#1F332E"/>
<path d="M588.754 556.606L572.804 564.017C570.406 565.201 567.687 565.567 565.061 565.06C562.746 564.513 561.181 563.097 560.77 561.175L557.058 543.84C556.357 540.57 559.066 536.7 563.498 534.641L572.306 530.549C576.738 528.49 581.442 528.915 583.489 531.56L594.344 545.576C595.548 547.13 595.62 549.239 594.546 551.362C593.24 553.695 591.206 555.537 588.754 556.606V556.606Z" fill="#1F332E"/>
<path d="M539.714 580.937L523.763 588.347C521.366 589.531 518.646 589.898 516.021 589.391C513.705 588.844 512.14 587.428 511.729 585.505L508.018 568.17C507.317 564.9 510.025 561.031 514.457 558.972L523.266 554.88C527.698 552.82 532.401 553.246 534.448 555.89L545.303 569.906C546.507 571.461 546.58 573.57 545.505 575.692C544.199 578.026 542.165 579.868 539.714 580.937V580.937Z" fill="#1F332E"/>
<path d="M432.865 175.513L381.03 199.596L545.391 553.355L597.226 529.272L432.865 175.513Z" fill="#E6E6E6"/>
<path d="M486.649 357.875L480.832 345.076L484.181 343.532L489.979 356.29L573.945 542.461L570.6 544.015" fill="#1F332E"/>
<path d="M552.25 347.237L546.434 334.438L549.782 332.894L555.581 345.652L639.546 531.823L636.202 533.377" fill="#1F332E"/>
<path d="M457.331 203.823L387.097 236.455C382.626 229.498 369.146 193.849 372.173 183.272L369.901 173.186L418.396 150.654L424.887 158.639C434.523 161.596 453.281 195.08 457.331 203.823Z" fill="#E6E6E6"/>
<path d="M420.422 151.086L370.378 174.337C368.531 175.195 366.564 174.88 365.984 173.632C365.901 173.452 365.85 173.26 365.832 173.062L363.242 145.432C363.131 144.249 364.143 142.908 365.689 142.189L398.877 126.77C400.424 126.051 402.101 126.142 402.934 126.99L422.38 146.789C423.375 147.802 422.835 149.535 421.174 150.661C420.935 150.822 420.684 150.964 420.422 151.086V151.086Z" fill="#E6E6E6"/>
<path d="M459.674 367.561C459.132 367.563 458.592 367.499 458.065 367.372C457.323 367.218 456.626 366.896 456.027 366.431C455.429 365.966 454.944 365.37 454.611 364.689L424.016 298.837C422.749 296.111 424.449 292.625 427.805 291.066L472.605 270.251C475.961 268.69 479.722 269.641 480.989 272.367L511.584 338.219C511.89 338.913 512.033 339.667 512.002 340.425C511.971 341.182 511.768 341.922 511.407 342.589C510.621 344.098 509.348 345.297 507.795 345.991L462.995 366.805C461.956 367.295 460.822 367.553 459.674 367.561Z" fill="#1F332E"/>
<path d="M465.8 377.529L413.965 401.612L495.276 576.621L547.111 552.537L465.8 377.529Z" fill="#E6E6E6"/>
<path d="M401.94 153.973L386.74 161.035C383.806 162.398 379.849 160.127 377.919 155.973C375.989 151.82 376.806 147.331 379.739 145.968L394.94 138.906C397.873 137.543 401.831 139.814 403.761 143.967C405.69 148.121 404.874 152.61 401.94 153.973Z" fill="#1F332E"/>
<path d="M419.325 342.677C409.631 347.19 409.471 367.406 412.511 373.956L418.02 385.812L453.134 369.498L447.625 357.642C444.579 351.094 429.026 338.179 419.325 342.677Z" fill="#1F332E"/>
<path d="M598.773 403.747C596.96 404.587 594.888 404.673 593.012 403.987C591.135 403.302 589.608 401.899 588.764 400.089L579.799 380.793C578.96 378.981 578.874 376.91 579.561 375.035C580.248 373.16 581.651 371.634 583.462 370.793C585.273 369.952 587.343 369.864 589.219 370.548C591.095 371.232 592.623 372.633 593.466 374.443L602.431 393.739C603.271 395.551 603.357 397.623 602.671 399.499C601.985 401.376 600.583 402.903 598.773 403.747V403.747Z" fill="#1F332E"/>
<path d="M446.293 474.668C444.481 475.507 442.409 475.594 440.532 474.908C438.656 474.222 437.128 472.82 436.285 471.009L427.32 451.714C426.481 449.902 426.395 447.831 427.082 445.956C427.768 444.081 429.171 442.555 430.982 441.714C432.793 440.872 434.864 440.784 436.74 441.468C438.616 442.153 440.144 443.554 440.987 445.364L449.952 464.659C450.792 466.472 450.878 468.544 450.192 470.42C449.506 472.296 448.104 473.824 446.293 474.668Z" fill="#1F332E"/>
<path d="M584.962 361.59L524.852 389.518C521.025 383.564 509.488 353.053 512.079 344.001L513.35 333.874L549.242 316.266L557.195 322.919C568.4 319.13 584.872 346.897 584.962 361.59Z" fill="#E6E6E6"/>
<path d="M557.055 359.653L541.854 366.716C538.921 368.079 534.458 364.719 531.906 359.227C529.355 353.736 529.665 348.158 532.599 346.795L547.8 339.732C550.733 338.369 555.196 341.729 557.748 347.221C560.299 352.712 559.988 358.29 557.055 359.653Z" fill="#1F332E"/>
<path d="M428.139 395.995L422.323 383.196L425.671 381.652L431.47 394.41L515.435 580.581L512.091 582.135" fill="#1F332E"/>
<path d="M485.643 406.982L425.533 434.91C416.665 430.331 403.112 400.371 412.76 389.393L414.031 379.266L449.922 361.658L457.875 368.311C466.122 370.841 482.176 399.499 485.643 406.982Z" fill="#E6E6E6"/>
<path d="M456.499 402.383L441.298 409.445C438.365 410.808 434.179 408.045 431.968 403.288C429.758 398.53 430.346 393.55 433.28 392.187L448.48 385.124C451.414 383.761 455.599 386.524 457.81 391.282C460.02 396.039 459.432 401.02 456.499 402.383Z" fill="#1F332E"/>
<path d="M609.23 424.431L650.166 435.028L675.273 484.342L632.827 486.007L609.23 424.431Z" fill="#E6E6E6"/>
<path d="M514.746 353.338L537.275 375.88L594.497 499.597L583.961 508.699L514.746 353.338Z" fill="#CCCCCC"/>
<path d="M465.758 373.772L467.526 405.594L521.535 530.746L535.344 528.968L465.758 373.772Z" fill="#CCCCCC"/>
<path d="M464.284 502.327L442.237 538.41L458.49 591.307L490.149 562.986L464.284 502.327Z" fill="#E6E6E6"/>
</g>
<defs>
<clipPath id="clip0_24_94">
<rect width="800" height="732.438" fill="white"/>
</clipPath>
</defs>
</svg>
