<svg width="800" height="733" viewBox="0 0 800 733" fill="none" xmlns="http://www.w3.org/2000/svg">
<path d="M258.293 302.324C254.87 304.605 251.366 299.176 254.855 296.996C258.279 294.715 261.783 300.144 258.293 302.324Z" fill="#E6E6E6"/>
<path d="M614.669 224.311C611.245 226.592 607.741 221.163 611.231 218.983C614.654 216.702 618.158 222.131 614.669 224.311Z" fill="#E6E6E6"/>
<path d="M371.766 286.367C368.342 288.648 364.838 283.219 368.328 281.039C371.751 278.758 375.255 284.187 371.766 286.367Z" fill="#E6E6E6"/>
<path d="M258.293 499.128C254.87 501.409 251.366 495.98 254.855 493.8C258.279 491.519 261.783 496.949 258.293 499.128Z" fill="#E6E6E6"/>
<path d="M432.935 54.9884C429.511 57.2695 426.007 51.8402 429.497 49.6603C432.92 47.3793 436.424 52.8087 432.935 54.9884Z" fill="#E6E6E6"/>
<path d="M264.499 159.596C261.075 161.877 257.571 156.448 261.061 154.268C264.484 151.987 267.988 157.417 264.499 159.596Z" fill="#E6E6E6"/>
<path d="M506.762 129.607L504.584 129.129L505.061 126.95L503.608 126.632L503.131 128.811L500.953 128.334L500.634 129.786L502.812 130.264L502.335 132.442L503.788 132.761L504.265 130.581L506.444 131.059L506.762 129.607Z" fill="#E6E6E6"/>
<path d="M152.073 311.144L149.895 310.667L150.372 308.488L148.92 308.17L148.442 310.348L146.263 309.871L145.945 311.323L148.124 311.801L147.647 313.98L149.099 314.298L149.577 312.12L151.755 312.597L152.073 311.144Z" fill="#E6E6E6"/>
<path opacity="0.3" d="M526.235 276.7L581.725 114.638L520.794 274.76C520.493 275.14 520.286 275.586 520.192 276.062C520.097 276.538 520.118 277.029 520.251 277.496C520.385 277.962 520.628 278.39 520.96 278.743C521.292 279.097 521.703 279.366 522.16 279.529C522.617 279.692 523.106 279.744 523.587 279.68C524.068 279.616 524.526 279.438 524.925 279.162C525.323 278.885 525.65 278.517 525.878 278.089C526.106 277.661 526.228 277.185 526.235 276.7H526.235Z" fill="#F0F0F0"/>
<path d="M754.794 599.135C760.034 599.135 764.282 594.888 764.282 589.648C764.282 584.408 760.034 580.16 754.794 580.16C749.554 580.16 745.306 584.408 745.306 589.648C745.306 594.888 749.554 599.135 754.794 599.135Z" fill="#F2F2F2"/>
<path d="M431.219 656.904C441.435 656.904 449.717 648.622 449.717 638.406C449.717 628.19 441.435 619.908 431.219 619.908C421.003 619.908 412.721 628.19 412.721 638.406C412.721 648.622 421.003 656.904 431.219 656.904Z" fill="#F2F2F2"/>
</svg>
