<svg width="800" height="733" viewBox="0 0 800 733" fill="none" xmlns="http://www.w3.org/2000/svg">
<g clip-path="url(#clip0_24_140)">
<path d="M151.851 272.906C202.28 272.906 243.161 232.026 243.161 181.596C243.161 131.167 202.28 90.2861 151.851 90.2861C101.422 90.2861 60.5408 131.167 60.5408 181.596C60.5408 232.026 101.422 272.906 151.851 272.906Z" fill="url(#paint0_linear_24_140)"/>
<path d="M667.681 180.101C656.818 183.711 644.776 187.257 631.554 190.74C563.165 208.745 471.496 222.791 373.434 230.289C275.373 237.787 182.634 237.842 112.302 230.444C78.0407 226.839 50.9421 221.655 31.7593 215.035C11.4499 208.027 0.778305 199.582 0.0404837 189.935C-1.39631 171.141 35.6892 154.6 67.0532 144.033L67.9027 146.553C24.8315 161.064 1.67298 176.399 2.69264 189.732C3.99076 206.714 44.0432 220.588 112.58 227.798C182.757 235.18 275.325 235.124 373.232 227.638C471.138 220.151 562.638 206.133 630.877 188.167C697.519 170.623 734.998 150.82 733.699 133.838C732.621 119.738 704.828 107.676 655.441 99.8733L655.856 97.2466C691.742 102.916 734.837 113.832 736.352 133.635C737.089 143.282 727.825 153.251 708.818 163.265C697.982 168.974 684.215 174.606 667.681 180.101Z" fill="#1F332E"/>
<path d="M694.512 342.049C699.752 342.049 703.999 337.801 703.999 332.561C703.999 327.321 699.752 323.073 694.512 323.073C689.272 323.073 685.024 327.321 685.024 332.561C685.024 337.801 689.272 342.049 694.512 342.049Z" fill="url(#paint1_linear_24_140)"/>
<path d="M290.265 412.082C295.505 412.082 299.752 407.835 299.752 402.595C299.752 397.355 295.505 393.107 290.265 393.107C285.025 393.107 280.777 397.355 280.777 402.595C280.777 407.835 285.025 412.082 290.265 412.082Z" fill="url(#paint2_linear_24_140)"/>
<path d="M659.033 524.499C647.587 524.499 635.041 524.066 621.395 523.201C550.817 518.719 459.397 503.137 363.975 479.326C268.553 455.515 180.53 426.318 116.121 397.117C84.7448 382.891 60.6641 369.425 44.5482 357.093C27.4855 344.037 20.0221 332.657 22.3643 323.27C26.928 304.983 67.3377 300.982 100.434 300.846L100.445 303.505C54.9954 303.692 28.1824 310.94 24.9451 323.914C20.8212 340.439 54.4539 366.237 117.219 394.694C181.487 423.832 269.348 452.973 364.619 476.746C459.89 500.519 551.141 516.075 621.564 520.547C690.338 524.915 732.15 517.943 736.273 501.418C739.697 487.698 717.126 467.486 672.72 444.506L673.942 442.144C706.209 458.842 743.662 482.792 738.854 502.062C736.511 511.449 724.576 517.988 703.38 521.497C691.298 523.497 676.457 524.499 659.033 524.499Z" fill="#1F332E"/>
</g>
<defs>
<linearGradient id="paint0_linear_24_140" x1="151.851" y1="90.2861" x2="151.851" y2="272.906" gradientUnits="userSpaceOnUse">
<stop stop-color="#14D9C5"/>
<stop offset="1" stop-color="#8DF3E9"/>
</linearGradient>
<linearGradient id="paint1_linear_24_140" x1="694.512" y1="323.073" x2="694.512" y2="342.049" gradientUnits="userSpaceOnUse">
<stop stop-color="#14D9C5"/>
<stop offset="1" stop-color="#8DF3E9"/>
</linearGradient>
<linearGradient id="paint2_linear_24_140" x1="290.265" y1="393.107" x2="290.265" y2="412.082" gradientUnits="userSpaceOnUse">
<stop stop-color="#14D9C5"/>
<stop offset="1" stop-color="#8DF3E9"/>
</linearGradient>
<clipPath id="clip0_24_140">
<rect width="800" height="732.438" fill="white"/>
</clipPath>
</defs>
</svg>
