<svg width="800" height="733" viewBox="0 0 800 733" fill="none" xmlns="http://www.w3.org/2000/svg">
<g clip-path="url(#clip0_24_2)">
<path d="M142.408 216.097C157.404 175.054 180.805 137.596 211.114 106.12C236.828 79.4254 276.848 80.5346 276.848 80.5346L277.077 80.2509C286.709 68.3732 299.634 59.6044 314.231 55.0446C328.827 50.4848 344.445 50.337 359.126 54.6198C362.941 55.7148 365.876 56.2001 367.272 55.7124C392.721 46.8056 391.526 26.7022 413.482 10.507C451.927 -17.8499 579.446 14.6323 597.427 66.8123C612.001 109.103 677.054 129.601 701.358 161.95C705.158 167.008 708.887 172.125 712.544 177.3C714.258 179.705 715.954 182.127 717.63 184.568C734.849 209.504 750.297 235.618 763.859 262.718C772.752 280.424 780.481 298.69 786.997 317.402C812.343 391.498 803.676 446.703 733.788 433.064C725.515 431.446 717.441 429.997 709.566 428.72C698.161 426.858 687.155 425.329 676.546 424.131C662.26 422.507 648.669 421.442 635.773 420.938C631.436 420.763 627.18 420.646 623.002 420.587C561.239 419.731 515.426 431.355 480.524 449.4C474.608 452.451 469.001 455.679 463.704 459.084C455.614 464.255 447.889 469.978 440.584 476.21C430.475 484.885 421.154 494.436 412.728 504.753L412.265 505.32C371.443 555.253 358.008 610.532 329.612 620.265C208.226 661.878 131.454 511.03 123.581 363.467C123.184 356.031 122.964 348.617 122.922 341.224C122.898 337.919 122.914 334.623 122.971 331.336C123.096 322.76 123.474 314.24 124.107 305.823C124.343 302.604 124.617 299.403 124.929 296.219C125.273 292.785 125.647 289.372 126.08 285.98C129.168 261.116 134.57 237.461 142.408 216.097Z" fill="url(#paint0_linear_24_2)"/>
</g>
<defs>
<linearGradient id="paint0_linear_24_2" x1="461.456" y1="0" x2="461.456" y2="627.283" gradientUnits="userSpaceOnUse">
<stop stop-color="#D9936A"/>
<stop offset="1" stop-color="#BF4F36"/>
</linearGradient>
<clipPath id="clip0_24_2">
<rect width="800" height="732.438" fill="white"/>
</clipPath>
</defs>
</svg>
