<svg width="188" height="188" viewBox="0 0 188 188" fill="none" xmlns="http://www.w3.org/2000/svg">
<path d="M93.9319 187.864C145.809 187.864 187.864 145.809 187.864 93.9319C187.864 42.0547 145.809 0 93.9319 0C42.0547 0 0 42.0547 0 93.9319C0 145.809 42.0547 187.864 93.9319 187.864Z" fill="white"/>
<path d="M94 179C136.526 179 171 144.75 171 102.5C171 60.2502 136.526 26 94 26C51.4741 26 17 60.2502 17 102.5C17 144.75 51.4741 179 94 179Z" fill="url(#paint0_linear_22_146)"/>
<path d="M149.114 137.87L158.918 141.005V143H115.313V141.005L125.516 138.611L120.272 69.242L121.298 69.413L93.425 143.399H80.942L53.012 69.869L54.038 69.755L49.877 138.839L59.681 141.005V143H36.14V141.005L45.317 138.839L49.592 68.045L39.275 63.485V61.49H74.672L97.7 123.734L96.047 123.677L119.303 61.49H153.902V63.485L143.357 66.335L149.114 137.87Z" fill="white"/>
<defs>
<linearGradient id="paint0_linear_22_146" x1="94" y1="26" x2="94" y2="179" gradientUnits="userSpaceOnUse">
<stop stop-color="#D9936A"/>
<stop offset="1" stop-color="#BF4F36"/>
</linearGradient>
</defs>
</svg>
